<svg width="25" height="22" viewBox="0 0 25 22" fill="none" xmlns="http://www.w3.org/2000/svg">
  <path fill-rule="evenodd" clip-rule="evenodd" d="M21.0197 11.1386C21.22 11.7533 20.8642 12.4255 20.2292 12.6324L5.79574 17.3347C5.16067 17.5416 4.47722 17.2079 4.27696 16.5932L1.36411 7.65228C1.16385 7.0376 1.5196 6.36539 2.15467 6.15849L16.5881 1.45625C17.2232 1.24935 17.9066 1.583 18.1069 2.19768L21.0197 11.1386V11.1386Z" stroke="#273B48" stroke-linecap="round" stroke-linejoin="round"/>
  <rect x="1.83008" y="9.08252" width="17.8674" height="1.78674" transform="rotate(-18.045 1.83008 9.08252)" fill="#273B48"/>
  <path fill-rule="evenodd" clip-rule="evenodd" d="M22.1149 19.6738C21.9902 20.3082 21.352 20.7218 20.6966 20.593L5.80147 17.6658C5.14608 17.537 4.71186 16.9126 4.83652 16.2783L6.6498 7.05132C6.77447 6.41697 7.41269 6.00333 8.06808 6.13213L22.9632 9.05932C23.6186 9.18812 24.0529 9.81252 23.9282 10.4469L22.1149 19.6738Z" fill="white" stroke="#273B48" stroke-linecap="round" stroke-linejoin="round"/>
  <rect x="6.02246" y="9.20215" width="17.8674" height="1.78674" transform="rotate(11.1181 6.02246 9.20215)" fill="#273B48"/>
</svg>
