<?xml version="1.0" encoding="UTF-8"?>
<svg width="26px" height="22px" viewBox="0 0 26 22" version="1.1" xmlns="http://www.w3.org/2000/svg" xmlns:xlink="http://www.w3.org/1999/xlink">
    <!-- Generator: Sketch 46.2 (44496) - http://www.bohemiancoding.com/sketch -->
    <title>icn-give feedback menu</title>
    <desc>Created with Sketch.</desc>
    <defs></defs>
    <g id="TAP-Recurring-Flow-v2" stroke="none" stroke-width="1" fill="none" fill-rule="evenodd">
        <g id="100-account-settings" transform="translate(-21.000000, -340.000000)" fill="#273B49">
            <g id="new-nav" transform="translate(15.000000, 108.000000)">
                <g id="Group-2">
                    <g id="feedback" transform="translate(6.000000, 232.000000)">
                        <path d="M24.0885801,10.3143514 C24.0885801,9.16173891 23.4153728,8.21516869 22.4239221,7.86836495 L22.4239221,12.7317775 C23.4153728,12.3400932 24.0885801,11.4261634 24.0885801,10.3143514 L24.0885801,10.3143514 Z M7.89896528,19.9452953 C7.89896528,20.3349395 8.1886484,20.6307427 8.58441268,20.6307427 C9.03321752,20.6307427 9.26986008,20.3267794 9.26986008,19.9452953 L9.26986008,15.2430446 C8.64969338,15.2430446 8.5313721,15.2104042 7.89896528,15.2104042 L7.89896528,19.9452953 Z M7.89896528,13.8415494 C12.4053739,13.8415494 17.9358736,14.8758406 21.0530273,18.1480359 L21.0530273,2.38274572 C17.8277525,5.60598052 12.4665746,6.7891933 7.89896528,6.7891933 L7.89896528,13.8415494 Z M6.52807048,13.8415494 L6.52807048,6.7891933 L5.4835792,6.7891933 C3.07023315,6.7891933 1.3708948,7.8826451 1.3708948,10.3143514 C1.3708948,12.7011771 3.10491352,13.8415494 5.4835792,13.8415494 L6.52807048,13.8415494 Z M22.4239221,20.6307427 L21.216229,20.6307427 C19.4597701,17.2218659 14.4943565,15.7326498 10.6407549,15.373606 L10.6407549,19.9452953 C10.6407549,21.1713486 9.80638587,22.0016375 8.58441268,22.0016375 C7.36039946,22.0016375 6.52807048,21.1693085 6.52807048,19.9452953 L6.52807048,15.2104042 L5.4835792,15.2104042 C1.88498035,15.2104042 0,13.2336229 0,10.3143514 C0,7.35223937 1.85029998,5.42033852 5.4835792,5.42033852 L7.89896528,5.42033852 C12.6277363,5.42033852 18.9416045,3.99844317 21.216229,0 L22.4239221,0 L22.4239221,6.46278977 C24.2211815,6.86059407 25.4594749,8.44161113 25.4594749,10.3143514 C25.4594749,12.2013717 24.2538218,13.7334283 22.4239221,14.167953 L22.4239221,20.6307427 Z" id="icn-give-feedback-menu"></path>
                    </g>
                </g>
            </g>
        </g>
    </g>
</svg>