<svg width="23" height="18" viewBox="0 0 23 18" fill="none" xmlns="http://www.w3.org/2000/svg">
<path d="M9.5559 12.721L14.7209 7.55597C15.0065 8.27787 15.0747 9.06752 14.9172 9.8277C14.7596 10.5879 14.3832 11.2854 13.8343 11.8343C13.2853 12.3833 12.5878 12.7597 11.8276 12.9172C11.0674 13.0748 10.2778 13.0065 9.5559 12.721ZM6.8269 13.88L6.8369 13.886L6.0909 14.631L6.0809 14.625L2.8529 17.854C2.80641 17.9004 2.75124 17.9372 2.69052 17.9623C2.62981 17.9874 2.56474 18.0003 2.49905 18.0003C2.36636 18.0002 2.23915 17.9474 2.1454 17.8535C2.05165 17.7596 1.99903 17.6323 1.99912 17.4996C1.99922 17.3669 2.05201 17.2397 2.1459 17.146L5.1999 14.1C3.31672 12.866 1.63584 11.348 0.2169 9.59997C0.0793384 9.43239 0.00415039 9.22229 0.00415039 9.00547C0.00415039 8.78866 0.0793384 8.57856 0.2169 8.41097C1.4239 6.89997 5.7819 1.99997 10.9999 1.99997C12.7283 2.04062 14.4188 2.51406 15.9169 3.37697L19.1469 0.145973C19.2408 0.0522188 19.3681 -0.000398823 19.5008 -0.000305051C19.6334 -0.000211278 19.7606 0.0525864 19.8544 0.146473C19.9482 0.24036 20.0008 0.367645 20.0007 0.500327C20.0006 0.633008 19.9478 0.760219 19.8539 0.853973L16.8099 3.89997L16.8199 3.90597L16.0879 4.63697L16.0779 4.63197L14.1479 6.55997L14.1549 6.56797L8.5669 12.155L8.5589 12.148L6.8269 13.88ZM5.9269 13.365L7.8529 11.44C7.30137 10.7462 7.00074 9.88626 6.9999 8.99997C7.00143 8.3007 7.18707 7.61416 7.53816 7.00941C7.88925 6.40466 8.3934 5.90303 8.9999 5.55497V8.99997L12.6399 5.35997C12.9258 5.49051 13.1944 5.65576 13.4399 5.85197L15.1709 4.12097C13.8898 3.42019 12.4597 3.03584 10.9999 2.99997C6.0999 2.99997 1.7999 8.02597 0.9909 9.03297C2.41176 10.7147 4.07578 12.1748 5.9279 13.365H5.9269ZM21.7869 8.40597C20.606 6.95117 19.2478 5.64974 17.7439 4.53197L17.0179 5.25897C18.4913 6.33461 19.8235 7.5915 20.9829 8.99997C20.1059 10.081 15.8439 15 10.9999 15C9.93975 14.9836 8.89203 14.7689 7.9109 14.367L7.1349 15.142C8.35097 15.6894 9.66644 15.9814 10.9999 16C16.2179 16 20.5759 11.1 21.7869 9.59997C21.9259 9.43213 22.002 9.22108 22.0022 9.00315C22.0024 8.78523 21.9266 8.57405 21.7879 8.40597H21.7869Z" fill="#141414"/>
</svg>
