<?xml version="1.0" encoding="UTF-8"?>
<svg width="25px" height="26px" viewBox="0 0 25 26" version="1.1" xmlns="http://www.w3.org/2000/svg" xmlns:xlink="http://www.w3.org/1999/xlink">
    <!-- Generator: Sketch 46.2 (44496) - http://www.bohemiancoding.com/sketch -->
    <title>icn-manage vcs</title>
    <desc>Created with Sketch.</desc>
    <defs></defs>
    <g id="TAP-Recurring-Flow-v2" stroke="none" stroke-width="1" fill="none" fill-rule="evenodd" stroke-linejoin="round">
        <g id="100-account-settings" transform="translate(-21.000000, -210.000000)" stroke-width="1.5" stroke="#273B49">
            <g id="new-nav" transform="translate(15.000000, 108.000000)">
                <g id="Group-2">
                    <g id="manage" transform="translate(7.000000, 103.000000)">
                        <g id="icn-manage-vcs">
                            <g id="gear">
                                <path d="M15.2486843,12.3577739 C15.2486843,14.4841163 13.5290011,16.2060467 11.4065687,16.2060467 C9.28413632,16.2060467 7.56445313,14.4841163 7.56445313,12.3577739 C7.56445313,10.2319402 9.28413632,8.51000977 11.4065687,8.51000977 C13.5290011,8.51000977 15.2486843,10.2319402 15.2486843,12.3577739 L15.2486843,12.3577739 Z" id="Stroke-976"></path>
                                <path d="M20.6388352,11.942146 C20.6388352,11.2751109 20.5645275,10.6262111 20.4312273,9.99941351 L22.680313,8.70161382 L19.8197483,3.75013963 L17.6120708,5.05417329 C16.6511752,4.18481752 15.7339566,3.51268196 14.3033907,3.10634031 L14.3033907,0.681891808 L8.58169405,0.681891808 L8.58169405,3.10634031 C7.15112809,3.51268196 6.13124007,4.18651769 5.16977722,5.05417329 L2.88552301,3.75013963 L0.0119119291,8.70161382 L2.25532524,9.99941351 C2.12202508,10.6262111 2.04658286,11.2751109 2.04658286,11.942146 C2.04658286,12.6097477 2.1174872,13.2580809 2.25078736,13.8848784 L0,15.1832448 L2.86056468,20.134719 L5.17034446,18.8312521 C6.13124007,19.6994744 7.15112809,20.3721767 8.58169405,20.7796518 L8.58169405,23.3752512 L14.3033907,23.3752512 L14.3033907,20.7796518 C15.7339566,20.3721767 16.6511752,19.6994744 17.6132052,18.8312521 L19.8452739,20.134719 L22.6933594,15.1832448 L20.4386014,13.8848784 C20.5707671,13.2580809 20.6388352,12.6097477 20.6388352,11.942146 L20.6388352,11.942146 Z" id="Stroke-978"></path>
                            </g>
                        </g>
                    </g>
                </g>
            </g>
        </g>
    </g>
</svg>