<svg xmlns="http://www.w3.org/2000/svg" width="24" height="25" viewBox="0 0 24 25">
    <path fill="#273B49" fill-rule="evenodd" d="M10.54 17.096c0-.748.61-1.27 1.27-1.27.724 0 1.27.546 1.27 1.27 0 .665-.53 1.238-1.27 1.238s-1.27-.573-1.27-1.238zm.603-2.508c0-1.621.385-2.683 1.524-3.778.785-.73 1.428-1.301 1.428-2.317 0-1.596-2.764-2.63-5.428-.603V6.46c2.486-1.877 7.047-1.39 7.047 2 0 1.313-.785 2.19-1.81 3.048-1.023.898-1.384 1.652-1.428 3.079h-1.333zm-9.746-2.476c0 5.754 4.538 10.635 10.603 10.635 5.86 0 10.603-4.673 10.603-10.635 0-5.939-4.73-10.667-10.603-10.667-5.808 0-10.603 4.685-10.603 10.667zm-1.397 0c0-6.544 5.3-12 12-12 6.506 0 12 5.264 12 12A11.955 11.955 0 0 1 12 24.08c-6.6 0-12-5.296-12-11.968z"/>
</svg>
