<?xml version="1.0" encoding="UTF-8"?>
<svg width="97px" height="100px" viewBox="0 0 97 100" version="1.1" xmlns="http://www.w3.org/2000/svg" xmlns:xlink="http://www.w3.org/1999/xlink">
    <!-- Generator: sketchtool 41.1 (35376) - http://www.bohemiancoding.com/sketch -->
    <title>11E5EFEE-8089-4A43-BEFF-E5C182E09564</title>
    <desc>Created with sketchtool.</desc>
    <defs>
        <polygon id="path-1" points="0 0.223027523 0 60.9477982 34.9107339 60.9477982 34.9107339 0.223027523 0 0.223027523"></polygon>
        <polygon id="path-3" points="33.6669725 33.0580734 33.6669725 0.0305504587 0.639724771 0.0305504587 0.639724771 33.0580734 33.6669725 33.0580734"></polygon>
        <polygon id="path-5" points="0 99.9440367 96.0522936 99.9440367 96.0522936 0 0 0"></polygon>
    </defs>
    <g id="wib3_error_messages" stroke="none" stroke-width="1" fill="none" fill-rule="evenodd">
        <g id="Account_Not_Eligable" transform="translate(-107.000000, -155.000000)">
            <g id="Page-1" transform="translate(107.000000, 155.000000)">
                <path d="M45.8711927,99.9440367 C59.127156,99.9440367 71.0638532,94.340367 79.4390826,85.3908257 L12.3042202,85.3908257 C20.6785321,94.340367 32.6143119,99.9440367 45.8711927,99.9440367 Z" id="Fill-1" fill="#E6E7E8"></path>
                <g id="Group-5" transform="translate(0.000000, 13.705505)">
                    <mask id="mask-2" fill="white">
                        <use xlink:href="#path-1"></use>
                    </mask>
                    <g id="Clip-4"></g>
                    <path d="M19.7061468,50.4872477 C19.7061468,50.4872477 22.4621101,49.1468807 32.8024771,48.477156 C34.1501835,46.0597248 34.6923853,42.4257798 34.9107339,39.396422 C27.9529358,34.2844954 23.270367,24.8404587 23.270367,13.99 C23.270367,8.84504587 23.4740367,4.18908257 24.4272477,0.223027523 C9.9006422,7.88541284 -0.000275229358,23.0799083 -0.000275229358,40.583578 C-0.000275229358,47.9037615 1.74100917,54.8156881 4.81715596,60.9477982 C7.46944954,56.6991743 12.1868807,53.3037615 19.7061468,50.4872477" id="Fill-3" fill="#E6E7E8" mask="url(#mask-2)"></path>
                </g>
                <path d="M58.5769725,53.2115596 C58.7485321,56.2840367 59.2577064,59.94 60.5980734,62.3354128 C70.1008257,63.027156 73.869633,64.1922936 73.869633,64.1922936 C80.7356881,66.0510092 85.169633,68.9555963 87.8788073,72.6317431 C90.3577064,67.0161468 91.7430275,60.8152294 91.7430275,54.2895413 C91.7430275,37.6638532 82.8118349,23.1179817 69.4668807,15.1344954 C70.197156,18.827156 70.363211,23.0629358 70.363211,27.6950459 C70.363211,38.6042202 65.6155046,48.1143119 58.5769725,53.2115596" id="Fill-6" fill="#E6E7E8"></path>
                <path d="M73.8692661,64.1927523 C73.8692661,64.1927523 70.1013761,63.0276147 60.5977064,62.3358716 C59.2582569,59.9395413 58.7481651,56.2844954 58.5766055,53.2120183 C65.6151376,48.1138532 70.362844,38.6037615 70.362844,27.6955046 C70.362844,23.0633945 70.1977064,18.8276147 69.4674312,15.1340367 C67.6316514,5.84504587 62.2151376,9.17431194e-05 46.8133028,9.17431194e-05 C32.0857798,9.17431194e-05 26.4931193,5.34229358 24.4279817,13.9285321 C23.4738532,17.8945872 23.2701835,22.5505505 23.2701835,27.6955046 C23.2701835,38.5459633 27.9527523,47.99 34.9105505,53.1019266 C34.6922018,56.1312844 34.15,59.7652294 32.8022936,62.1826606 C22.4619266,62.8523853 19.7059633,64.1927523 19.7059633,64.1927523 C12.1866972,67.0092661 7.46926606,70.4046789 4.81788991,74.6533028 C6.79311927,78.5909174 9.3206422,82.202844 12.3041284,85.39 L79.4389908,85.39 C82.9261468,81.6643119 85.7912844,77.3578899 87.8784404,72.6312844 C85.1692661,68.9551376 80.7362385,66.0514679 73.8692661,64.1927523" id="Fill-8" fill="#344653"></path>
                <g id="Group-12" transform="translate(62.385321, 64.164220)">
                    <mask id="mask-4" fill="white">
                        <use xlink:href="#path-3"></use>
                    </mask>
                    <g id="Clip-11"></g>
                    <path d="M33.6672477,16.5443119 C33.6672477,25.6644954 26.2736697,33.0580734 17.1534862,33.0580734 C8.03330275,33.0580734 0.639724771,25.6644954 0.639724771,16.5443119 C0.639724771,7.42412844 8.03330275,0.0305504587 17.1534862,0.0305504587 C26.2736697,0.0305504587 33.6672477,7.42412844 33.6672477,16.5443119" id="Fill-10" fill="#C42126" mask="url(#mask-4)"></path>
                </g>
                <mask id="mask-6" fill="white">
                    <use xlink:href="#path-5"></use>
                </mask>
                <g id="Clip-14"></g>
                <polygon id="Fill-13" fill="#FFFFFF" mask="url(#mask-6)" points="76.7862385 91.3733945 82.2908257 91.3733945 82.2908257 86.7449541 76.7862385 86.7449541"></polygon>
                <polygon id="Fill-15" fill="#FFFFFF" mask="url(#mask-6)" points="76.7862385 83.993578 82.2908257 83.993578 82.2908257 70.0431193 76.7862385 70.0431193"></polygon>
            </g>
        </g>
    </g>
</svg>