<?xml version="1.0" encoding="UTF-8" standalone="no"?>
<svg width="20px" height="20px" viewBox="0 0 20 20" version="1.1" xmlns="http://www.w3.org/2000/svg" xmlns:xlink="http://www.w3.org/1999/xlink">
    <!-- Generator: sketchtool 3.8.3 (29802) - http://www.bohemiancoding.com/sketch -->
    <title>41E1508C-A1E7-4DB6-BC28-4B9CBB02E6FF</title>
    <desc>Created with sketchtool.</desc>
    <defs></defs>
    <g id="Symbols" stroke="none" stroke-width="1" fill="none" fill-rule="evenodd">
        <g id="add-item-/-addItem_active" transform="translate(0.000000, -22.000000)" fill="#33BF65">
            <g id="add_icon_active" transform="translate(0.000000, 22.000000)">
                <path d="M10,0 C4.48,0 0,4.48 0,10 C0,15.52 4.48,20 10,20 C15.52,20 20,15.52 20,10 C20,4.48 15.52,0 10,0 L10,0 Z M15,11 L11,11 L11,15 L9,15 L9,11 L5,11 L5,9 L9,9 L9,5 L11,5 L11,9 L15,9 L15,11 L15,11 Z" id="add_icon"></path>
            </g>
        </g>
    </g>
</svg>