<svg width="20" height="20" viewBox="0 0 20 20" fill="none" xmlns="http://www.w3.org/2000/svg">
<path fill-rule="evenodd" clip-rule="evenodd" d="M10.4481 3.72892L9.39265 3.90499C9.14355 3.94601 8.96448 4.16709 8.97448 4.41919L9.24959 11.2709C9.2606 11.539 9.48169 11.7511 9.74979 11.7511H10.25C10.5191 11.7511 10.7392 11.539 10.7502 11.2709L11.0313 4.24212C11.0363 4.09206 10.9743 3.94701 10.8622 3.84797C10.7482 3.74793 10.5961 3.70491 10.4481 3.72892ZM8.87644 14.8504C8.87644 15.4696 9.34963 16.0018 10.0099 16.0018C10.6702 16.0018 11.1434 15.4686 11.1434 14.8504C11.1434 14.1771 10.6562 13.6689 10.0099 13.6689C9.42266 13.6689 8.87644 14.1541 8.87644 14.8504ZM9.99989 0.000427246C4.47768 0.000427246 -0.000106812 4.47722 -0.000106812 10.0004C-0.000106812 15.5226 4.47768 20.0004 9.99989 20.0004C15.5241 20.0004 19.9999 15.5226 19.9999 10.0004C19.9999 4.47722 15.5241 0.000427246 9.99989 0.000427246Z" fill="#CC2427"/>
</svg>
