<?xml version="1.0" encoding="UTF-8"?>
<svg width="50px" height="53px" viewBox="0 0 50 53" version="1.1" xmlns="http://www.w3.org/2000/svg" xmlns:xlink="http://www.w3.org/1999/xlink">
    <!-- Generator: sketchtool 41.2 (35397) - http://www.bohemiancoding.com/sketch -->
    <title>03FDCB34-8152-417F-BC63-A424DA6BD29D</title>
    <desc>Created with sketchtool.</desc>
    <defs></defs>
    <g id="Product_Landing_Page" stroke="none" stroke-width="1" fill="none" fill-rule="evenodd">
        <g id="20170119_WiB5_ProductInstallPage" transform="translate(-880.000000, -117.000000)">
            <g id="WiB_Extension_Logo" transform="translate(880.000000, 117.000000)">
                <g id="Group-13">
                    <rect id="Rectangle-4" fill="#A4D3F1" x="0" y="0" width="49.2584565" height="38.6517707" rx="7.5"></rect>
                    <rect id="Rectangle-4" fill="#2283BF" x="0" y="6.72204708" width="49.2584565" height="38.6517707" rx="7.5"></rect>
                    <rect id="Rectangle-4" fill="#F5F5F5" x="0" y="13.4440942" width="49.2584565" height="38.6517707" rx="7.5"></rect>
                </g>
                <g id="Page-1" transform="translate(7.777651, 15.628759)">
                    <path d="M31.1106041,15.6287595 C31.1106041,24.260176 24.1461497,31.2575189 15.555302,31.2575189 C6.9644544,31.2575189 0,24.260176 0,15.6287595 C0,6.99734291 6.9644544,0 15.555302,0 C24.1461497,0 31.1106041,6.99734291 31.1106041,15.6287595" id="Fill-1" fill="#FFFFFF"></path>
                    <path d="M15.5885299,12.8263926 C17.275416,14.5069184 16.8731386,16.6723699 14.9174915,19.2263696 C14.9174915,19.2263696 10.9176184,23.2212542 7.15755619,26.2636527 C7.70847314,26.7008238 8.29136487,27.0971866 8.90450303,27.4483995 C11.1500837,26.1768263 14.1362696,24.3855968 17.0610985,22.3178251 C24.6974555,17.2137327 29.8289768,12.3484131 27.4001893,9.65722753 C24.7549237,6.72553274 15.127488,6.50021812 4.2180362,7.41536881 C3.72329117,8.14992051 3.29768083,8.93526567 2.94682235,9.760551 C8.77833225,9.93463801 13.5525137,10.798127 15.5885299,12.8263926" id="Fill-3" fill="#C31C29"></path>
                </g>
            </g>
        </g>
    </g>
</svg>