<svg xmlns="http://www.w3.org/2000/svg" xmlns:xlink="http://www.w3.org/1999/xlink" width="100" height="100" viewBox="0 0 100 100">
    <defs>
        <path id="a" d="M0 89.812c8.357 6.248 18.744 9.95 29.999 9.95 11.256 0 21.644-3.702 30.001-9.95v-79.63C51.643 3.934 41.255.232 29.999.232 18.744.232 8.357 3.934 0 10.182v79.63z"/>
    </defs>
    <g fill="none" fill-rule="evenodd">
        <path fill="#E6E7E8" d="M100 50c0 27.484-22.388 49.764-50 49.764-27.614 0-50-22.28-50-49.764C0 22.515 22.386.235 50 .235c27.612 0 50 22.28 50 49.765"/>
        <path fill="#FFF" d="M78.477 79.582c0 1.61-1.53 2.917-3.42 2.917H24.838c-1.889 0-3.419-1.307-3.419-2.917V7.587c0-1.61 1.53-2.917 3.42-2.917h50.216c1.891 0 3.421 1.307 3.421 2.917v71.995z"/>
        <g transform="translate(20 .003)">
            <mask id="b" fill="#fff">
                <use xlink:href="#a"/>
            </mask>
            <path fill="#344653" d="M3 83.997h54v-69H3v69zm25.828 16h1.965c11.03-.213 29.207 0 29.207 0v-90c0-5.514-4.366-10-9.908-10H9.905C4.366-.003 0 4.483 0 9.997v90c0 .031 17.971-.21 28.828 0z" mask="url(#b)"/>
        </g>
        <g>
            <path fill="#344653" d="M23 82h54.831V16H23v66zm57 2V10c0-5.514-4.366-10-9.908-10H29.905C24.366 0 20 4.486 20 10v74h60z"/>
            <path fill="#737F89" d="M50 96c-2.757 0-5-2.243-5-5s2.243-5 5-5 5 2.243 5 5-2.243 5-5 5M56 9H44a1 1 0 0 1 0-2h12a1 1 0 0 1 0 2"/>
            <path fill="#C42126" d="M27.497 44.369c28.064-5.273 74.667-11.72 19.427 16.395 0 0 50.135-27.547-19.465-16.388l.038-.007z"/>
        </g>
    </g>
</svg>
