<svg xmlns="http://www.w3.org/2000/svg" xmlns:xlink="http://www.w3.org/1999/xlink" width="50" height="50" viewBox="0 0 50 50">
    <defs>
        <rect id="a" width="50" height="50" rx="25"/>
        <linearGradient id="d" x1="0%" y1="18.451%" y2="86.426%">
            <stop offset="0%" stop-color="#F7F7FA"/>
            <stop offset="51.419%" stop-color="#FFF"/>
            <stop offset="100%" stop-color="#F0F0F2"/>
        </linearGradient>
        <rect id="c" width="50" height="50" rx="25"/>
    </defs>
    <g fill="none" fill-rule="evenodd">
        <mask id="b" fill="#fff">
            <use xlink:href="#a"/>
        </mask>
        <use fill="#FFF" xlink:href="#a"/>
        <path fill="#E1DFE1" fill-opacity=".7" d="M-79.001 23.19l-.76.164a.288.288 0 1 0 .1.569l.754-.147c27.03-4.813 83.241-11.486 95.338.508 3.69 3.659 2.81 8.374-1.468 13.935 0 0-13.132 13.055-22.342 19.357-7.588 5.37-16.548 10.996-26.187 16.898l-.38.222a.287.287 0 0 0-.07.402c.09.13.27.16.4.069l.321-.17C-25.12 70.732-15.73 65.667-6.28 60.47c.15-.084 13.316-6.645 25.933-15.521 16.705-11.113 27.93-21.705 22.617-27.565-11.924-13.151-88.645-1.321-121.27 5.806z" mask="url(#b)" style="mix-blend-mode:multiply"/>
        <path fill="#C31C29" d="M-79.001 20.065l-.76.164a.288.288 0 1 0 .1.569l.754-.147c27.03-4.813 83.241-11.486 95.338.508 3.69 3.659 2.81 8.374-1.468 13.935 0 0-13.132 13.055-22.342 19.357-7.588 5.37-16.548 10.996-26.187 16.898l-.38.222a.287.287 0 0 0-.07.402c.09.13.27.16.4.069l.321-.17c8.175-4.266 17.565-9.331 27.014-14.527.15-.084 13.316-6.645 25.933-15.521C36.357 30.71 47.582 20.119 42.27 14.259c-11.924-13.151-88.645-1.321-121.27 5.806z" mask="url(#b)"/>
        <g style="mix-blend-mode:multiply">
            <use fill="url(#d)" xlink:href="#c"/>
            <rect width="47.917" height="47.917" x="1.042" y="1.042" stroke="#000" stroke-opacity=".1" stroke-width="2.083" rx="23.958"/>
        </g>
    </g>
</svg>
