<svg width="100" height="100" viewBox="0 0 100 100" fill="none" xmlns="http://www.w3.org/2000/svg">
<path fill-rule="evenodd" clip-rule="evenodd" d="M50 100C22.386 100 0 77.614 0 50C0 22.386 22.386 0 50 0C77.614 0 100 22.386 100 50C100 77.614 77.614 100 50 100Z" fill="#98D5EC"/>
<path fill-rule="evenodd" clip-rule="evenodd" d="M79 74H21C17.687 74 15 71.313 15 68V34C15 30.687 17.687 28 21 28H79C82.313 28 85 30.687 85 34V68C85 71.313 82.313 74 79 74" fill="white"/>
<path fill-rule="evenodd" clip-rule="evenodd" d="M64.3608 34.3975C61.6428 31.2955 43.7688 34.0895 36.1898 35.7465L36.0138 35.7845C35.9768 35.7905 35.9528 35.8255 35.9588 35.8615C35.9648 35.8985 35.9998 35.9225 36.0368 35.9165L36.2118 35.8815C42.4908 34.7635 55.5488 33.2135 58.3588 36.0005C59.2158 36.8495 59.0108 37.9455 58.0178 39.2375C56.1838 41.4095 52.9438 43.6535 52.8278 43.7335C52.8258 43.7355 52.8238 43.7365 52.8218 43.7375C51.0648 44.9815 48.9838 46.2885 46.7448 47.6595L46.6558 47.7105C46.6268 47.7325 46.6188 47.7735 46.6398 47.8035C46.6608 47.8345 46.7028 47.8415 46.7328 47.8205L46.8078 47.7805C47.0628 47.6475 47.3238 47.5105 47.5888 47.3715C49.7858 46.3785 51.5738 45.5055 53.2678 44.6045L59.1798 41.1785C59.1898 41.1735 59.1978 41.1685 59.2078 41.1635C63.5668 38.4865 66.3128 36.6255 64.3608 34.3975" fill="#D22F2F"/>
<mask id="mask0_2421_2454" style="mask-type:alpha" maskUnits="userSpaceOnUse" x="0" y="0" width="100" height="100">
<path fill-rule="evenodd" clip-rule="evenodd" d="M0 100H100V0H0V100Z" fill="white"/>
</mask>
<g mask="url(#mask0_2421_2454)">
<path fill-rule="evenodd" clip-rule="evenodd" d="M13 68H87V54H13V68Z" fill="#004977"/>
<path fill-rule="evenodd" clip-rule="evenodd" d="M81.82 99.64C71.9784 99.64 64 91.6616 64 81.82C64 71.9784 71.9784 64 81.82 64C91.6616 64 99.64 71.9784 99.64 81.82C99.64 91.6616 91.6616 99.64 81.82 99.64Z" fill="#008BC1"/>
<path fill-rule="evenodd" clip-rule="evenodd" d="M90 80.032H83L86.44 68.968L74 84.032H81L78.147 95.032L90 80.032Z" fill="#FFDC24"/>
<path fill-rule="evenodd" clip-rule="evenodd" d="M19 60C19.552 60 20 60.447 20 61C20 61.553 19.552 62 19 62C18.448 62 18 61.553 18 61C18 60.447 18.448 60 19 60Z" fill="white"/>
<path fill-rule="evenodd" clip-rule="evenodd" d="M21.3335 61C21.3335 60.447 21.7815 60 22.3335 60C22.8855 60 23.3335 60.447 23.3335 61C23.3335 61.553 22.8855 62 22.3335 62C21.7815 62 21.3335 61.553 21.3335 61" fill="white"/>
<path fill-rule="evenodd" clip-rule="evenodd" d="M24.6665 61C24.6665 60.447 25.1145 60 25.6665 60C26.2185 60 26.6665 60.447 26.6665 61C26.6665 61.553 26.2185 62 25.6665 62C25.1145 62 24.6665 61.553 24.6665 61" fill="white"/>
<path fill-rule="evenodd" clip-rule="evenodd" d="M28 61C28 60.447 28.448 60 29 60C29.552 60 30 60.447 30 61C30 61.553 29.552 62 29 62C28.448 62 28 61.553 28 61" fill="white"/>
<path fill-rule="evenodd" clip-rule="evenodd" d="M35.5 61C35.5 60.447 35.948 60 36.5 60C37.052 60 37.5 60.447 37.5 61C37.5 61.553 37.052 62 36.5 62C35.948 62 35.5 61.553 35.5 61" fill="white"/>
<path fill-rule="evenodd" clip-rule="evenodd" d="M38.8335 61C38.8335 60.447 39.2815 60 39.8335 60C40.3855 60 40.8335 60.447 40.8335 61C40.8335 61.553 40.3855 62 39.8335 62C39.2815 62 38.8335 61.553 38.8335 61" fill="white"/>
<path fill-rule="evenodd" clip-rule="evenodd" d="M42.1665 61C42.1665 60.447 42.6145 60 43.1665 60C43.7185 60 44.1665 60.447 44.1665 61C44.1665 61.553 43.7185 62 43.1665 62C42.6145 62 42.1665 61.553 42.1665 61" fill="white"/>
<path fill-rule="evenodd" clip-rule="evenodd" d="M45.5 61C45.5 60.447 45.948 60 46.5 60C47.052 60 47.5 60.447 47.5 61C47.5 61.553 47.052 62 46.5 62C45.948 62 45.5 61.553 45.5 61" fill="white"/>
<path fill-rule="evenodd" clip-rule="evenodd" d="M52.5 61C52.5 60.447 52.948 60 53.5 60C54.052 60 54.5 60.447 54.5 61C54.5 61.553 54.052 62 53.5 62C52.948 62 52.5 61.553 52.5 61" fill="white"/>
<path fill-rule="evenodd" clip-rule="evenodd" d="M55.8335 61C55.8335 60.447 56.2815 60 56.8335 60C57.3855 60 57.8335 60.447 57.8335 61C57.8335 61.553 57.3855 62 56.8335 62C56.2815 62 55.8335 61.553 55.8335 61" fill="white"/>
<path fill-rule="evenodd" clip-rule="evenodd" d="M59.1665 61C59.1665 60.447 59.6145 60 60.1665 60C60.7185 60 61.1665 60.447 61.1665 61C61.1665 61.553 60.7185 62 60.1665 62C59.6145 62 59.1665 61.553 59.1665 61" fill="white"/>
<path fill-rule="evenodd" clip-rule="evenodd" d="M62.5 61C62.5 60.447 62.948 60 63.5 60C64.052 60 64.5 60.447 64.5 61C64.5 61.553 64.052 62 63.5 62C62.948 62 62.5 61.553 62.5 61" fill="white"/>
<path fill-rule="evenodd" clip-rule="evenodd" d="M70 61C70 60.447 70.448 60 71 60C71.552 60 72 60.447 72 61C72 61.553 71.552 62 71 62C70.448 62 70 61.553 70 61" fill="white"/>
<path fill-rule="evenodd" clip-rule="evenodd" d="M73.3335 61C73.3335 60.447 73.7815 60 74.3335 60C74.8855 60 75.3335 60.447 75.3335 61C75.3335 61.553 74.8855 62 74.3335 62C73.7815 62 73.3335 61.553 73.3335 61" fill="white"/>
<path fill-rule="evenodd" clip-rule="evenodd" d="M76.6665 61C76.6665 60.447 77.1145 60 77.6665 60C78.2185 60 78.6665 60.447 78.6665 61C78.6665 61.553 78.2185 62 77.6665 62C77.1145 62 76.6665 61.553 76.6665 61" fill="white"/>
<path fill-rule="evenodd" clip-rule="evenodd" d="M80 61C80 60.447 80.448 60 81 60C81.552 60 82 60.447 82 61C82 61.553 81.552 62 81 62C80.448 62 80 61.553 80 61" fill="white"/>
</g>
</svg>
