<?xml version="1.0" encoding="UTF-8"?>
<svg width="100px" height="100px" viewBox="0 0 100 100" version="1.1" xmlns="http://www.w3.org/2000/svg" xmlns:xlink="http://www.w3.org/1999/xlink">
    <!-- Generator: Sketch 41.1 (35376) - http://www.bohemiancoding.com/sketch -->
    <title>Cactus_Icon</title>
    <desc>Created with Sketch.</desc>
    <defs></defs>
    <g id="wib3_error_messages" stroke="none" stroke-width="1" fill="none" fill-rule="evenodd">
        <g id="Couldn't_Generate_VCard" transform="translate(-106.000000, -155.000000)">
            <g id="Cactus_Icon" transform="translate(106.000000, 155.000000)">
                <path d="M100,50 C100,77.614 77.614,100 50,100 C22.386,100 0,77.614 0,50 C0,22.386 22.386,0 50,0 C77.614,0 100,22.386 100,50" id="Fill-1" fill="#D1EEFF"></path>
                <path d="M35,39 L35,29 C35,28.448 35.448,28 36,28 C36.552,28 37,28.448 37,29 L37,39 C37,39.552 36.552,40 36,40 C35.448,40 35,39.552 35,39" id="Fill-3" fill="#12801F"></path>
                <path d="M35.9503,72.0858 L31.7073,76.3288 C31.3173,76.7188 30.6843,76.7188 30.2933,76.3288 L30.2933,76.3288 C29.9033,75.9378 29.9033,75.3048 30.2933,74.9138 L34.5363,70.6718 C34.9263,70.2808 35.5593,70.2808 35.9503,70.6718 L35.9503,70.6718 C36.3413,71.0618 36.3413,71.6948 35.9503,72.0858" id="Fill-5" fill="#12801F"></path>
                <path d="M89,81.2916367 L89,41 C89,31.611 81.389,24 72,24 C62.611,24 55,31.611 55,41 L55,60 L47,60 C45,60 45,58 45,58 L45,45 C45,40.029 40.971,36 36,36 C31.029,36 27,40.029 27,45 L27,60 C27,69.941 35.059,78 45,78 L55,78 L55,99.7531175 C68.7244967,98.3904331 80.8164902,91.477946 89,81.2916367 Z" id="Combined-Shape" fill="#0EA218"></path>
                <path d="M71,24.9289 L71,14.9289 C71,14.3769 71.448,13.9289 72,13.9289 C72.552,13.9289 73,14.3769 73,14.9289 L73,24.9289 C73,25.4809 72.552,25.9289 72,25.9289 C71.448,25.9289 71,25.4809 71,24.9289" id="Fill-9" fill="#12801F"></path>
                <path d="M81,66 L91,66 C91.552,66 92,66.448 92,67 C92,67.552 91.552,68 91,68 L81,68 C80.448,68 80,67.552 80,67 C80,66.448 80.448,66 81,66" id="Fill-12" fill="#12801F"></path>
                <path d="M81.3076,35.8239 L89.7636,30.4849 C90.2306,30.1899 90.8476,30.3299 91.1426,30.7969 C91.4376,31.2639 91.2976,31.8809 90.8306,32.1759 L82.3756,37.5149 C81.9086,37.8099 81.2906,37.6699 80.9956,37.2029 L80.9956,37.2029 C80.7006,36.7359 80.8406,36.1189 81.3076,35.8239" id="Fill-14" fill="#12801F"></path>
                <path d="M61,94 L51,94 C50.448,94 50,93.552 50,93 L50,93 C50,92.448 50.448,92 51,92 L61,92 C61.552,92 62,92.448 62,93 L62,93 C62,93.552 61.552,94 61,94" id="Fill-21" fill="#12801F"></path>
                <path d="M62.875,57 L52.875,57 C52.323,57 51.875,56.552 51.875,56 C51.875,55.448 52.323,55 52.875,55 L62.875,55 C63.427,55 63.875,55.448 63.875,56 C63.875,56.552 63.427,57 62.875,57" id="Fill-23" fill="#12801F"></path>
                <path d="M48,75 L48,81 C48,81.552 47.552,82 47,82 C46.448,82 46,81.552 46,81 L46,75 C46,74.448 46.448,74 47,74 C47.552,74 48,74.448 48,75" id="Fill-25" fill="#12801F"></path>
                <path d="M47.1029,41.8047 L41.8839,44.7647 C41.4029,45.0367 40.7929,44.8677 40.5209,44.3877 L40.5209,44.3877 C40.2479,43.9067 40.4169,43.2967 40.8969,43.0247 L46.1159,40.0647 C46.5969,39.7927 47.2069,39.9607 47.4799,40.4417 L47.4799,40.4417 C47.7519,40.9217 47.5829,41.5327 47.1029,41.8047" id="Fill-27" fill="#12801F"></path>
                <path d="M58.364,34.7071 L51.293,27.6361 C50.902,27.2451 50.902,26.6121 51.293,26.2221 C51.683,25.8311 52.317,25.8311 52.707,26.2221 L59.778,33.2931 C60.169,33.6831 60.169,34.3161 59.778,34.7071 C59.388,35.0981 58.755,35.0981 58.364,34.7071" id="Fill-29" fill="#12801F"></path>
                <path d="M84,47 L94,47 C94.552,47 95,47.448 95,48 C95,48.552 94.552,49 94,49 L84,49 C83.448,49 83,48.552 83,48 C83,47.448 83.448,47 84,47" id="Fill-31" fill="#12801F"></path>
                <path d="M76.3979,29.5705 L82.2799,21.4835 C82.6049,21.0365 83.2299,20.9375 83.6769,21.2625 C84.1229,21.5875 84.2219,22.2125 83.8969,22.6595 L78.0149,30.7465 C77.6909,31.1935 77.0649,31.2925 76.6189,30.9675 L76.6189,30.9675 C76.1719,30.6425 76.0729,30.0175 76.3979,29.5705" id="Fill-33" fill="#12801F"></path>
                <path d="M12.5647,55.1742 C13.3257,52.9902 18.0187,48.6562 19.2697,46.3012 C20.5207,43.9452 24.0137,36.0112 27.1187,35.5482 C32.7487,34.7082 33.9597,42.2722 34.9267,48.7422 C35.8937,55.2112 33.0487,60.6042 31.2197,62.9852 C29.3897,65.3652 30.1257,55.1862 28.7987,55.0982 C27.4717,55.0092 26.4767,60.0952 24.0837,60.2252 C21.6917,60.3552 22.1777,52.3432 19.2307,55.6172 C16.2837,58.8922 10.9777,59.7322 12.5647,55.1742" id="Fill-35" fill="#FFDC17"></path>
                <path d="M26.7383,39.8134 L23.2383,35.6474 C22.8803,35.2264 22.9313,34.5954 23.3523,34.2374 L23.3523,34.2374 C23.7733,33.8804 24.4043,33.9314 24.7623,34.3524 L28.2623,38.5184 C28.6203,38.9394 28.5683,39.5704 28.1483,39.9284 C27.7273,40.2854 27.0963,40.2344 26.7383,39.8134" id="Fill-37" fill="#12801F"></path>
            </g>
        </g>
    </g>
</svg>