<svg width="24" height="24" viewBox="0 0 24 24" fill="none" xmlns="http://www.w3.org/2000/svg">
  <path d="M37.0496 28.3497L23.2996 4.98301C22.6996 3.94967 21.6162 3.33301 20.4329 3.33301C19.2496 3.33301 18.1496 3.94967 17.5496 4.98301L3.79957 28.3497C3.1829 29.3997 3.1829 30.6497 3.7829 31.6997C4.3829 32.7497 5.46623 33.383 6.66623 33.383H34.1662C35.3829 33.383 36.4662 32.7497 37.0662 31.6997C37.6662 30.6497 37.6662 29.3997 37.0496 28.3497ZM20.4329 24.633C21.5829 24.633 22.5162 25.5663 22.5162 26.7163C22.5162 27.8663 21.5829 28.7997 20.4329 28.7997C19.2829 28.7997 18.3496 27.8663 18.3496 26.7163C18.3496 25.5663 19.2829 24.633 20.4329 24.633ZM18.7662 20.4663V13.383C18.7662 12.4663 19.5162 11.7163 20.4329 11.7163C21.3496 11.7163 22.0996 12.4663 22.0996 13.383V20.4663C22.0996 21.383 21.3496 22.133 20.4329 22.133C19.5162 22.133 18.7662 21.383 18.7662 20.4663Z" fill="#121212"/>

</svg>
