<svg width="20" height="20" viewBox="0 0 20 20" fill="none" xmlns="http://www.w3.org/2000/svg">
<path d="M9.99998 0.798706C4.95831 0.798706 0.833313 4.92371 0.833313 9.96537C0.833313 15.007 4.95831 19.132 9.99998 19.132C15.0416 19.132 19.1666 15.007 19.1666 9.96537C19.1666 4.92371 15.0416 0.798706 9.99998 0.798706ZM2.66665 9.96537C2.66665 5.93204 5.96665 2.63204 9.99998 2.63204C11.65 2.63204 13.2083 3.18204 14.4916 4.19037L4.22498 14.457C3.21665 13.1737 2.66665 11.6154 2.66665 9.96537ZM9.99998 17.2987C8.34998 17.2987 6.79165 16.7487 5.50831 15.7404L15.775 5.47371C16.7833 6.75704 17.3333 8.31537 17.3333 9.96537C17.3333 13.9987 14.0333 17.2987 9.99998 17.2987Z" fill="#CC2427"/>
</svg>
