<svg xmlns="http://www.w3.org/2000/svg" width="25" height="25" viewBox="0 0 25 25">
    <path fill="#273B49" fill-rule="evenodd" d="M7.59 7.999c0 2.627 2.128 4.708 4.879 4.708 2.744 0 4.878-2.077 4.878-4.708 0-2.64-2.144-4.707-4.878-4.707-2.735 0-4.88 2.068-4.88 4.707zm-1.422 0C6.168 4.725 8.943 2 12.468 2c3.46 0 6.301 2.66 6.301 5.999 0 3.298-2.803 6-6.3 6-3.47 0-6.3-2.675-6.3-6zm6.3 8.862c-4.581 0-8.348 1.564-8.788 5.847h17.577c-.438-4.285-4.21-5.847-8.788-5.847zM2 24l.097-.983c.52-5.325 4.73-7.447 10.372-7.447 5.628 0 9.848 2.11 10.371 7.447l.097.983H2z"/>
</svg>
