<svg xmlns="http://www.w3.org/2000/svg" width="16" height="17" viewBox="0 0 16 17">
    <path fill="#231F20" fill-rule="evenodd" d="M10.39 11.49l3.916 3.894c.127.177.395.218.613 0 .19-.19.204-.438 0-.614l-3.893-3.915-.635.635zM.89 6.728c0 3.005 2.439 5.376 5.396 5.376 2.955 0 5.397-2.368 5.397-5.376a5.384 5.384 0 0 0-5.397-5.396A5.383 5.383 0 0 0 .89 6.728zm-.889 0A6.28 6.28 0 0 1 6.285.443a6.28 6.28 0 0 1 6.285 6.285 6.172 6.172 0 0 1-1.015 3.429l4 3.978c.489.49.535 1.345-.011 1.894a1.297 1.297 0 0 1-1.873-.01l-4.001-4c-1.001.65-2.128.973-3.385.973C2.86 12.992 0 10.233 0 6.728z"/>
</svg>
