<svg xmlns="http://www.w3.org/2000/svg" xmlns:xlink="http://www.w3.org/1999/xlink" width="48" height="48" viewBox="0 0 48 48">
    <defs>
        <path id="a" d="M10.384 0h15.232c3.61 0 4.92.376 6.24 1.082a7.36 7.36 0 0 1 3.062 3.062c.706 1.32 1.082 2.63 1.082 6.24v15.232c0 3.61-.376 4.92-1.082 6.24a7.36 7.36 0 0 1-3.062 3.062c-1.32.706-2.63 1.082-6.24 1.082H10.384c-3.61 0-4.92-.376-6.24-1.082a7.36 7.36 0 0 1-3.062-3.062C.376 30.536 0 29.226 0 25.616V10.384c0-3.61.376-4.92 1.082-6.24a7.36 7.36 0 0 1 3.062-3.062C5.464.376 6.774 0 10.384 0z"/>
        <path id="c" d="M10.384 0h15.232c3.61 0 4.92.376 6.24 1.082a7.36 7.36 0 0 1 3.062 3.062c.706 1.32 1.082 2.63 1.082 6.24v15.232c0 3.61-.376 4.92-1.082 6.24a7.36 7.36 0 0 1-3.062 3.062c-1.32.706-2.63 1.082-6.24 1.082H10.384c-3.61 0-4.92-.376-6.24-1.082a7.36 7.36 0 0 1-3.062-3.062C.376 30.536 0 29.226 0 25.616V10.384c0-3.61.376-4.92 1.082-6.24a7.36 7.36 0 0 1 3.062-3.062C5.464.376 6.774 0 10.384 0z"/>
    </defs>
    <g fill="none" fill-rule="evenodd">
        <g fill="#DCD8DB" transform="translate(10 10)">
            <circle cx="30" cy="30" r="8"/>
            <path d="M10.384 0h15.232c3.61 0 4.92.376 6.24 1.082a7.36 7.36 0 0 1 3.062 3.062c.706 1.32 1.082 2.63 1.082 6.24v15.232c0 3.61-.376 4.92-1.082 6.24a7.36 7.36 0 0 1-3.062 3.062c-1.32.706-2.63 1.082-6.24 1.082H10.384c-3.61 0-4.92-.376-6.24-1.082a7.36 7.36 0 0 1-3.062-3.062C.376 30.536 0 29.226 0 25.616V10.384c0-3.61.376-4.92 1.082-6.24a7.36 7.36 0 0 1 3.062-3.062C5.464.376 6.774 0 10.384 0z"/>
        </g>
        <g transform="translate(6 6)">
            <mask id="b" fill="#fff">
                <use xlink:href="#a"/>
            </mask>
            <use fill="#FFF" xlink:href="#a"/>
            <g mask="url(#b)">
                <path fill="#E1DFE1" fill-opacity=".7" d="M-55.68 17.154l-.548.118a.208.208 0 0 0-.17.239c.02.113.128.188.242.168l.544-.105c19.488-3.448 60.014-8.229 68.735.364 2.661 2.621 2.026 5.999-1.058 9.983 0 0-9.468 9.353-16.108 13.867-5.47 3.848-11.93 7.878-18.88 12.107l-.274.16a.205.205 0 0 0-.05.287.206.206 0 0 0 .288.05l.232-.122c5.894-3.057 12.664-6.685 19.476-10.408.109-.06 9.6-4.76 18.697-11.12 12.043-7.961 20.136-15.55 16.306-19.747-8.597-9.422-63.91-.947-87.432 4.16z" style="mix-blend-mode:multiply"/>
                <path fill="#C31C29" d="M-55.68 15.005l-.548.117a.208.208 0 0 0-.17.24c.02.113.128.187.242.168l.544-.105c19.488-3.448 60.014-8.23 68.735.364 2.661 2.62 2.026 5.999-1.058 9.983 0 0-9.468 9.353-16.108 13.867-5.47 3.848-11.93 7.878-18.88 12.107l-.274.159a.205.205 0 0 0-.05.287.206.206 0 0 0 .288.05l.232-.121c5.894-3.057 12.664-6.686 19.476-10.408.109-.06 9.6-4.76 18.697-11.12 12.043-7.961 20.136-15.55 16.306-19.748-8.597-9.422-63.91-.946-87.432 4.16z"/>
            </g>
            <use stroke="#9EA6AD" stroke-width="2" xlink:href="#c"/>
        </g>
        <g transform="translate(30 30)">
            <circle cx="8" cy="8" r="8" fill="#62C557"/>
            <path stroke="#FFF" stroke-linecap="round" stroke-linejoin="round" stroke-width="1.875" d="M4 8.5L6.667 11 12 5"/>
        </g>
    </g>
</svg>
