<?xml version="1.0" encoding="UTF-8"?>
<svg width="12px" height="12px" viewBox="0 0 12 12" version="1.1" xmlns="http://www.w3.org/2000/svg" xmlns:xlink="http://www.w3.org/1999/xlink">
    <!-- Generator: Sketch 47 (45396) - http://www.bohemiancoding.com/sketch -->
    <title>icn-information</title>
    <desc>Created with Sketch.</desc>
    <defs></defs>
    <g id="Error-Messages-Update" stroke="none" stroke-width="1" fill="none" fill-rule="evenodd">
        <g id="error-locked-card-unselected" transform="translate(-271.000000, -118.000000)" fill="#6F6F6F">
            <path d="M276.76,118 C273.5788,118 271,120.579726 271,123.762068 C271,126.94441 273.5788,129.524136 276.76,129.524136 C279.9412,129.524136 282.52,126.94441 282.52,123.762068 C282.52,120.579726 279.9412,118 276.76,118 L276.76,118 Z M277.55536,126.133159 C277.17712,126.622695 276.32056,127.123275 275.93152,127.123275 C275.75392,127.123275 275.54248,126.889431 275.54248,126.744899 C275.54248,126.655827 275.5756,126.477923 275.64232,126.311063 C275.70928,126.166771 276.34312,124.375488 276.62104,123.529665 C276.6988,123.296061 276.6436,123.229317 276.58768,123.229317 C276.37624,123.229317 275.88688,123.607453 275.698,123.796881 C275.65288,123.841297 275.51992,123.663153 275.51992,123.607453 C275.51992,123.551993 275.5756,123.462921 275.61976,123.385133 C276.03136,122.795241 276.8104,122.283858 277.36648,122.283858 C277.51072,122.283858 277.67752,122.506418 277.67752,122.739781 C277.67752,122.862225 277.6336,123.007237 277.58848,123.162813 L276.60976,125.977343 C276.59896,125.999671 276.63232,126.077699 276.67624,126.077699 C276.82072,126.077699 277.2436,125.821527 277.4548,125.654668 C277.54408,125.588164 277.64392,125.543027 277.6888,125.543027 C277.7332,125.543027 277.77808,125.565596 277.77808,125.654668 C277.77808,125.821527 277.67752,125.977343 277.55536,126.133159 L277.55536,126.133159 Z M277.72216,121.193386 C277.64392,121.26013 277.51072,121.293742 277.3888,121.293742 C277.16584,121.293742 276.88768,121.126882 276.88768,120.804207 C276.88768,120.514903 277.09912,120.258731 277.19944,120.180943 C277.26592,120.136527 277.4104,120.092111 277.49944,120.092111 C277.88848,120.092111 278.00008,120.436875 278.00008,120.592691 C278.00008,120.837579 277.81072,121.126882 277.72216,121.193386 L277.72216,121.193386 Z" id="icn-information"></path>
        </g>
    </g>
</svg>