<?xml version="1.0" encoding="UTF-8"?>
<svg width="16px" height="16px" viewBox="0 0 16 16" version="1.1" xmlns="http://www.w3.org/2000/svg" xmlns:xlink="http://www.w3.org/1999/xlink">
    <!-- Generator: Sketch 45.2 (43514) - http://www.bohemiancoding.com/sketch -->
    <title>icons/filled/information</title>
    <desc>Created with Sketch.</desc>
    <defs></defs>
    <g id="BE-w/SMS-OTP-&amp;-On-Demand-flow" stroke="none" stroke-width="1" fill="none" fill-rule="evenodd">
        <g id="11wib3_new_number_filled" transform="translate(-247.000000, -147.000000)" fill="#99A1A9">
            <g id="icons/filled/information" transform="translate(247.000000, 147.000000)">
                <path d="M8.24569275,0.314362657 C4.10350525,0.314362657 0.745692749,3.67338083 0.745692749,7.81705566 C0.745692749,11.9607305 4.10350525,15.3197487 8.24569275,15.3197487 C12.3878802,15.3197487 15.7456927,11.9607305 15.7456927,7.81705566 C15.7456927,3.67338083 12.3878802,0.314362657 8.24569275,0.314362657 L8.24569275,0.314362657 Z M9.28131775,10.9044138 C8.78881775,11.5418301 7.67350525,12.1936266 7.16694275,12.1936266 C6.93569275,12.1936266 6.66038025,11.8891423 6.66038025,11.7009497 C6.66038025,11.5849706 6.70350525,11.353325 6.79038025,11.1360595 C6.87756775,10.9481795 7.70288025,8.61577985 8.06475525,7.51444704 C8.16600525,7.21027536 8.09413025,7.12336917 8.02131775,7.12336917 C7.74600525,7.12336917 7.10881775,7.61573339 6.86288025,7.86238443 C6.80413025,7.92021768 6.63100525,7.68825943 6.63100525,7.61573339 C6.63100525,7.54351997 6.70350525,7.42754084 6.76100525,7.32625449 C7.29694275,6.55816629 8.31131775,5.89230229 9.03538025,5.89230229 C9.22319275,5.89230229 9.44038025,6.18209381 9.44038025,6.48595287 C9.44038025,6.6453851 9.38319275,6.83420287 9.32444275,7.03677558 L8.05006775,10.7015285 C8.03600525,10.7306014 8.07944275,10.8322004 8.13663025,10.8322004 C8.32475525,10.8322004 8.87538025,10.4986432 9.15038025,10.2813777 C9.26663025,10.1947841 9.39663025,10.136013 9.45506775,10.136013 C9.51288025,10.136013 9.57131775,10.1653986 9.57131775,10.2813777 C9.57131775,10.4986432 9.44038025,10.7015285 9.28131775,10.9044138 L9.28131775,10.9044138 Z M9.49850525,4.47241764 C9.39663025,4.55932383 9.22319275,4.60308954 9.06444275,4.60308954 C8.77413025,4.60308954 8.41194275,4.38582406 8.41194275,3.96567325 C8.41194275,3.58897554 8.68725525,3.25541831 8.81788025,3.15413196 C8.90444275,3.0962987 9.09256775,3.03846544 9.20850525,3.03846544 C9.71506775,3.03846544 9.86038025,3.48737657 9.86038025,3.69026189 C9.86038025,4.00912635 9.61381775,4.38582406 9.49850525,4.47241764 L9.49850525,4.47241764 Z"></path>
            </g>
        </g>
    </g>
</svg>