<svg xmlns="http://www.w3.org/2000/svg" xmlns:xlink="http://www.w3.org/1999/xlink" width="13" height="18" viewBox="0 0 13 18">
    <defs>
        <path id="a" d="M269.042 283.128v1.594a.542.542 0 0 1-1.084 0v-1.594a1.08 1.08 0 0 1 .542-2.017 1.08 1.08 0 1 1 .542 2.016zm-3.792-7.795a3.254 3.254 0 0 1 3.25-3.25 3.254 3.254 0 0 1 3.25 3.25v2.167h-6.5v-2.167zm8.306 2.167h-.723v-2.167a4.334 4.334 0 0 0-8.666 0v2.167h-.723c-.797 0-1.444.647-1.444 1.444v7.945c0 .797.647 1.444 1.444 1.444h10.112c.797 0 1.444-.647 1.444-1.444v-7.945c0-.797-.647-1.444-1.444-1.444z"/>
    </defs>
    <use fill="#707477" fill-rule="evenodd" transform="translate(-262 -271)" xlink:href="#a"/>
</svg>
