<svg xmlns="http://www.w3.org/2000/svg" width="60" height="60" viewBox="0 0 60 60">
    <g fill="none" fill-rule="evenodd">
        <circle cx="30" cy="30" r="30" fill="#63BCDF"/>
        <g stroke="#FFF" stroke-linejoin="round" stroke-width="1.5">
            <path d="M35.502 30.426a5.42 5.42 0 0 1-5.418 5.426 5.42 5.42 0 0 1-5.417-5.426A5.42 5.42 0 0 1 30.084 25a5.42 5.42 0 0 1 5.418 5.426z"/>
            <path d="M43.103 29.84c0-.94-.105-1.856-.293-2.74l3.172-1.83-4.034-6.982-3.113 1.839c-1.355-1.226-2.648-2.174-4.666-2.747v-3.418h-8.068v3.418c-2.017.573-3.455 1.523-4.811 2.747l-3.221-1.839-4.052 6.982 3.163 1.83a13.15 13.15 0 0 0-.294 2.74c0 .941.1 1.855.288 2.74L14 34.41l4.034 6.982 3.257-1.838c1.355 1.224 2.793 2.173 4.81 2.747v3.66h8.068v-3.66c2.018-.574 3.31-1.523 4.667-2.747l3.148 1.838L46 34.41l-3.18-1.83c.187-.885.283-1.799.283-2.74z"/>
        </g>
    </g>
</svg>
