<svg xmlns="http://www.w3.org/2000/svg" xmlns:xlink="http://www.w3.org/1999/xlink" width="100" height="103" viewBox="0 0 100 103">
    <defs>
        <path id="a" d="M0 89.812c8.357 6.248 18.744 9.95 29.999 9.95 11.256 0 21.644-3.702 30.001-9.95v-79.63C51.643 3.934 41.255.232 29.999.232 18.744.232 8.357 3.934 0 10.182v79.63z"/>
        <path id="c" d="M96.667 103.058V70.031H63.64v33.027h33.027z"/>
    </defs>
    <g fill="none" fill-rule="evenodd" transform="translate(0 -1)">
        <path fill="#DAD8DC" d="M100 51c0 27.484-22.388 49.764-50 49.764-27.614 0-50-22.28-50-49.764C0 23.515 22.386 1.235 50 1.235c27.612 0 50 22.28 50 49.765"/>
        <path fill="#FFF" d="M78.477 80.582c0 1.61-1.53 2.917-3.42 2.917H24.838c-1.889 0-3.419-1.307-3.419-2.917V8.587c0-1.61 1.53-2.917 3.42-2.917h50.216c1.891 0 3.421 1.307 3.421 2.917v71.995z"/>
        <path fill="#DAD8DC" d="M64.713 66.562a6.173 6.173 0 0 0-1.332-.933l-6.444-4.288c-.958-.493-2.764-.32-2.764-1.421v-2.99c.209-.244 1.828-1.257 2.082-1.627 1.01-1.466 2.041-3.08 2.57-4.772.951-.302 2.257-1.205 2.257-2.278v-3.19c0-.277-.143-.543-.343-.79-.641-.79-1.039-1.758-1.039-2.786v-1.46s-.218-8.525-9.672-8.525c-9.453 0-9.671 8.525-9.671 8.525v1.46c0 1.028-.398 1.996-1.04 2.786-.2.247-.342.513-.342.79v3.19c0 .841 1.036 1.58 1.679 2.008.775 3.47 5.23 5.969 5.23 5.969v2.915c0 1.065-2.539 2.044-3.448 2.552l-6.504 3.882a6.179 6.179 0 0 0-1.276.966c.225.168.464.319.695.48h28.687c.224-.157.456-.3.675-.463z"/>
        <g transform="translate(20 1.003)">
            <mask id="b" fill="#fff">
                <use xlink:href="#a"/>
            </mask>
            <path fill="#344653" d="M3 83.997h54v-69H3v69zm25.828 16h1.965c11.03-.213 29.207 0 29.207 0v-90c0-5.514-4.366-10-9.908-10H9.905C4.366-.003 0 4.483 0 9.997v90c0 .031 17.971-.21 28.828 0z" mask="url(#b)"/>
        </g>
        <path fill="#344653" d="M23 83h54.831V17H23v66zm57 2V11c0-5.514-4.366-10-9.908-10H29.905C24.366 1 20 5.486 20 11v74h60z"/>
        <path fill="#737F89" d="M50 97c-2.757 0-5-2.243-5-5s2.243-5 5-5 5 2.243 5 5-2.243 5-5 5M56 10H44a1 1 0 0 1 0-2h12a1 1 0 0 1 0 2"/>
        <mask id="d" fill="#fff">
            <use xlink:href="#c"/>
        </mask>
        <path fill="#10BD1B" d="M96.667 86.544c0 9.12-7.393 16.514-16.514 16.514-9.12 0-16.513-7.394-16.513-16.514s7.393-16.513 16.513-16.513c9.12 0 16.514 7.393 16.514 16.513" mask="url(#d)"/>
        <g stroke="#FFF" stroke-linecap="round" stroke-linejoin="round" stroke-width="1.5" mask="url(#d)">
            <path d="M89 79L77.522 95 73 90.478"/>
        </g>
    </g>
</svg>
