<svg xmlns="http://www.w3.org/2000/svg" width="24" height="24" viewBox="0 0 24 24">
    <g fill="none" fill-rule="evenodd">
        <path stroke="#344655" stroke-linecap="round" d="M11.5 14.5v7a2 2 0 0 1-2 2h-7a2 2 0 0 1-2-2v-15a2 2 0 0 1 2-2h3M5.5 8.5h-5M11.5 19.5H.5"/>
        <path fill="#344655" d="M6 20.5a1 1 0 1 0 0 2 1 1 0 0 0 0-2"/>
        <path stroke="#344655" stroke-linecap="round" d="M4.5 6.5h1"/>
        <path stroke="#344655" stroke-linecap="round" stroke-linejoin="round" d="M23.5 8A1.5 1.5 0 0 1 22 9.5h-5.5l-3 3v-3H10A1.5 1.5 0 0 1 8.5 8V2A1.5 1.5 0 0 1 10 .5h12A1.5 1.5 0 0 1 23.5 2v6z"/>
        <path fill="#344655" d="M16.5 4a.5.5 0 1 0 0 1 .5.5 0 0 0 0-1M19.5 4a.5.5 0 1 0 0 1 .5.5 0 0 0 0-1M13.531 4a.5.5 0 1 0 0 1 .5.5 0 0 0 0-1"/>
    </g>
</svg>
