<svg xmlns="http://www.w3.org/2000/svg" width="60" height="60" viewBox="0 0 60 60">
    <g fill="none" fill-rule="evenodd">
        <circle cx="30" cy="30" r="30" fill="#004977"/>
        <g stroke="#FFF" stroke-linecap="round" stroke-linejoin="round" stroke-width="1.2">
            <path d="M39.583 34.139c0 .946-.8 1.72-1.778 1.72H15.588c-.977 0-1.777-.774-1.777-1.72V20.376c0-.946.8-1.72 1.777-1.72h22.217c.978 0 1.778.774 1.778 1.72V34.14z"/>
            <path fill="#004977" d="M47.721 40.92c0 .947-.8 1.721-1.777 1.721H23.727c-.978 0-1.778-.774-1.778-1.72V27.158c0-.946.8-1.72 1.778-1.72h22.217c.977 0 1.777.774 1.777 1.72v13.763z"/>
        </g>
    </g>
</svg>
