<svg xmlns="http://www.w3.org/2000/svg" width="24" height="24" viewBox="0 0 24 24">
    <g fill="none" fill-rule="evenodd">
        <g transform="translate(6 1)">
            <path fill="#231F20" d="M6.368 18.526a1.158 1.158 0 1 0 .001 2.317 1.158 1.158 0 0 0 0-2.317"/>
            <rect width="12.737" height="22" stroke="#231F20" rx="2"/>
            <path stroke="#231F20" stroke-linecap="square" d="M0 17.368h12.737M0 4.632h12.737"/>
            <path stroke="#231F20" stroke-linecap="round" stroke-linejoin="round" d="M4.632 2.316h3.473"/>
        </g>
        <path fill="#231F20" d="M9.83 10.237c0-.34.11-.685.328-1.034.219-.35.537-.638.956-.868.42-.229.908-.343 1.467-.343.519 0 .977.095 1.375.287.397.192.704.452.92.782.217.329.326.687.326 1.074 0 .304-.062.57-.186.8a2.45 2.45 0 0 1-.44.594c-.17.166-.475.446-.916.84-.122.111-.22.209-.293.293a1.19 1.19 0 0 0-.163.23c-.036.07-.064.14-.084.21-.02.07-.049.193-.088.368-.068.373-.281.559-.64.559a.653.653 0 0 1-.47-.183c-.127-.122-.19-.302-.19-.542 0-.301.046-.562.14-.782.093-.22.216-.413.37-.58.154-.166.362-.364.623-.593.23-.2.395-.352.497-.454a1.54 1.54 0 0 0 .258-.341.825.825 0 0 0 .105-.408.95.95 0 0 0-.32-.726c-.213-.197-.488-.295-.824-.295-.394 0-.684.1-.87.298-.187.199-.344.492-.473.878-.122.405-.353.607-.693.607-.2 0-.37-.07-.508-.212a.649.649 0 0 1-.206-.46zm2.622 5.887a.845.845 0 0 1-.572-.213c-.163-.141-.245-.339-.245-.593 0-.226.079-.415.237-.57a.798.798 0 0 1 .58-.23c.225 0 .415.077.569.23a.774.774 0 0 1 .231.57c0 .25-.08.447-.242.59a.816.816 0 0 1-.558.216z"/>
    </g>
</svg>
