<svg xmlns="http://www.w3.org/2000/svg" width="37" height="13" viewBox="0 0 37 13">
    <g fill="#FFF" fill-rule="evenodd">
        <path d="M13.902.254c-.052-.012-.08-.022-.108-.023-.948-.002-1.895.001-2.843-.008-.148 0-.175.09-.215.197L7.86 8.118c-.035.093-.073.185-.136.341-.047-.254-.081-.434-.113-.614-.38-2.133-.757-4.267-1.144-6.398C6.326.667 5.81.229 5.063.227 3.48.225 1.899.226.317.227.235.226.152.234.079.237L0 .482v.097c.945.204 1.859.503 2.74.92.496.235.76.618.894 1.17.753 3.144 1.527 6.282 2.287 9.423.048.201.124.267.322.264.88-.013 1.758-.011 2.637-.001.18.002.266-.055.337-.234 1.335-3.389 2.677-6.775 4.017-10.16.223-.565.442-1.13.668-1.707M30.618 8.049l1.53-4.473.058-.003c.293 1.485.584 2.97.882 4.476h-2.47zM34.27.236c-.815 0-1.61.012-2.403-.004-.697-.014-1.153.312-1.42.99-1.157 2.94-2.323 5.878-3.485 8.817l-.902 2.277c.037.012.059.023.08.023.955.003 1.91.008 2.865-.003.068 0 .168-.098.195-.174.178-.48.34-.967.504-1.453.039-.117.081-.19.22-.189 1.162.006 2.323.005 3.485 0 .119 0 .18.038.203.168.086.467.194.93.269 1.398.033.206.114.26.3.257.734-.01 1.468-.004 2.201-.005.08 0 .161-.012.27-.021L34.27.236zM25.147 6.087c-.553-.46-1.196-.8-1.798-1.193-.312-.204-.646-.377-.93-.616-.56-.476-.485-1.112.147-1.48.344-.2.72-.261 1.103-.272.884-.024 1.725.186 2.546.568L26.731.55c-.06-.026-.107-.05-.156-.07C25.32.02 24.033-.123 22.72.114c-1.084.195-2.066.62-2.843 1.483-1.016 1.13-1.476 3.31.176 4.69.504.422 1.093.73 1.641 1.092.362.238.75.443 1.075.73.5.444.436 1.12-.105 1.517-.315.23-.676.334-1.053.367-1.05.092-2.049-.115-3.001-.586-.106-.052-.212-.102-.33-.158l-.532 2.643c.057.028.096.054.138.069 1.738.633 3.502.79 5.287.273 1.055-.305 1.955-.884 2.526-1.909.677-1.212.826-3.091-.552-4.237M18.143.243h-2.948l-2.448 12.105h.261c.795 0 1.59-.013 2.385.007.246.006.331-.068.382-.324.692-3.474 1.395-6.945 2.095-10.416l.273-1.372"/>
    </g>
</svg>
