<svg xmlns="http://www.w3.org/2000/svg" width="24" height="24" viewBox="0 0 24 24">
    <path fill="#273B49" fill-rule="evenodd" d="M24 5.968c-.16-.522-.642-.922-1.202-.922H17.35V3.884a1.88 1.88 0 0 0-1.883-1.882L8.574 2A1.88 1.88 0 0 0 6.69 3.883v1.163H1.243c-.56 0-1.043.36-1.202.922L0 6.048v4.566c0 .522.12 1.043.28 1.482v9.136c0 .681.56 1.243 1.243 1.243h20.956c.68 0 1.242-.56 1.242-1.243l-.001-9.134c.2-.441.28-.96.28-1.482V5.968zM7.893 3.924c0-.36.321-.681.681-.681h6.891c.36 0 .681.32.681.68l.002 1.123H7.893V3.924zM22.56 21.232c0 .041-.04.041 0 0l-20.995.041c-.04 0-.04 0-.04-.04V13.7c.68.521 1.522.842 2.444.842h6.21v.642a1.88 1.88 0 0 0 1.884 1.882 1.88 1.88 0 0 0 1.882-1.882v-.642h6.21A4.01 4.01 0 0 0 22.6 13.7l-.002 7.531h-.04zm-11.22-6.05V13.46c0-.36.322-.681.682-.681.36 0 .68.32.68.68v1.724c0 .36-.32.68-.68.68-.36 0-.681-.28-.681-.68zm11.5-4.568a2.728 2.728 0 0 1-2.725 2.725h-6.21c-.08-.96-.882-1.762-1.883-1.762-1.002 0-1.803.76-1.883 1.762h-6.21a2.728 2.728 0 0 1-2.726-2.725V6.288h21.64l-.003 4.326z"/>
</svg>
