<svg width="24" height="24" viewBox="0 0 24 24" fill="none" xmlns="http://www.w3.org/2000/svg">
<path fill-rule="evenodd" clip-rule="evenodd" d="M20 20H4V8H20V20ZM18 3H20C20.552 3 21 3.447 21 4V20C21 20.553 20.552 21 20 21H4C3.448 21 3 20.553 3 20V4C3 3.447 3.448 3 4 3H7.004V1.5C7.004 1.224 7.227 1 7.504 1C7.78 1 8.004 1.224 8.004 1.5V3V5H8.504C8.781 5 9.004 4.776 9.004 4.5V3H16.004V1.5C16.004 1.224 16.227 1 16.504 1C16.777 1 16.997 1.219 17.002 1.491C17.002 1.4925 17.0015 1.494 17.001 1.4955C17.0005 1.497 17 1.4985 17 1.5V5H17.5C17.777 5 18 4.776 18 4.5V3ZM6.9996 13H8.9996C9.5526 13 9.9996 13.447 9.9996 14V16C9.9996 16.553 9.5526 17 8.9996 17H6.9996C6.4476 17 5.9996 16.553 5.9996 16V14C5.9996 13.447 6.4476 13 6.9996 13Z" fill="#0D74AF"/>
</svg>
