<svg xmlns="http://www.w3.org/2000/svg" width="102" height="102" viewBox="0 0 102 102">
    <g fill="none" fill-rule="evenodd">
        <path fill="#266082" d="M102 51c0 28.166-22.833 51-51 51S0 79.166 0 51C0 22.833 22.833 0 51 0s51 22.833 51 51"/>
        <path fill="#C0E7F2" d="M51 23.868a3.111 3.111 0 0 0-3.112-3.111H9.931A50.77 50.77 0 0 0 0 51a50.768 50.768 0 0 0 9.933 30.246h37.952A3.11 3.11 0 0 0 51 78.138v-54.27z"/>
        <path fill="#00AFD3" d="M.865 41.599H51V28.785H5.08A50.614 50.614 0 0 0 .865 41.599"/>
        <path fill="#FFF" d="M62.377 20.767c-10.769-.35-19.773 8.094-20.123 18.858a19.42 19.42 0 0 0 3.192 11.34l-2.931 8.525 9.209-2.5a19.416 19.416 0 0 0 9.39 2.756c10.767.349 19.771-8.094 20.12-18.858.35-10.764-8.09-19.772-18.857-20.121"/>
        <path fill="#F8C612" d="M71.675 39.135c0-3.038-2.46-5.5-5.5-5.5a5.485 5.485 0 0 0-4.432 2.25 5.484 5.484 0 0 0-4.43-2.25 5.5 5.5 0 0 0-3.116 10.031h-.024l7.566 5.568 7.555-5.568h-.004a5.49 5.49 0 0 0 2.385-4.53"/>
    </g>
</svg>
