<svg width="14" height="14" viewBox="0 0 14 14" fill="none" xmlns="http://www.w3.org/2000/svg">
<path fill-rule="evenodd" clip-rule="evenodd" d="M10.3153 4.9395L5.98725 9.9395C5.91192 10.0268 5.80259 10.0788 5.68725 10.0828C5.68259 10.0835 5.67725 10.0835 5.67192 10.0835C5.56192 10.0835 5.45592 10.0395 5.37792 9.9615L3.37259 7.9615C3.20992 7.7995 3.20925 7.5355 3.37192 7.37216C3.53459 7.20883 3.79859 7.2095 3.96125 7.3715L5.64992 9.05616L9.68525 4.39416C9.83592 4.2195 10.0999 4.2015 10.2733 4.3515C10.4466 4.50216 10.4659 4.7655 10.3153 4.9395ZM0.333252 7.00016C0.333252 10.6822 3.31859 13.6668 6.99992 13.6668C10.6819 13.6668 13.6666 10.6822 13.6666 7.00016C13.6666 3.31816 10.6819 0.333496 6.99992 0.333496C3.31859 0.333496 0.333252 3.31816 0.333252 7.00016Z" fill="#128020"/>
</svg>
