<svg xmlns="http://www.w3.org/2000/svg" width="20" height="20" viewBox="0 0 20 20">
    <path fill="#0D74AF" fill-rule="evenodd" d="M17.475 1.48c-.174-.173-.407-.26-.697-.26s-.522.087-.696.26l-2.265 2.265 2.38 2.38 2.294-2.293a.918.918 0 0 0 .29-.668.92.92 0 0 0-.29-.667L17.475 1.48zM4.935 17.389L15.327 6.997l-2.38-2.381L2.582 14.98l-.928 3.337 3.28-.929zM19.362 1.626c.426.426.638.939.638 1.538 0 .6-.212 1.114-.638 1.539L5.573 18.49l-5.34 1.48L0 19.74l1.48-5.398L15.21.61c.213-.214.455-.368.726-.465a2.495 2.495 0 0 1 1.684 0c.27.097.512.251.726.465l1.016 1.015z"/>
</svg>
