<svg width="121" height="119" viewBox="0 0 121 119" fill="none" xmlns="http://www.w3.org/2000/svg">
<path fill-rule="evenodd" clip-rule="evenodd" d="M120 58.9999C120 91.5841 93.1376 118 60 118C26.8624 118 0 91.5841 0 58.9999C0 26.4145 26.8624 -0.00012207 60 -0.00012207C93.1376 -0.00012207 120 26.4145 120 58.9999Z" fill="#266082"/>
<path fill-rule="evenodd" clip-rule="evenodd" d="M60 27.5996C60 25.6121 58.3612 24.0006 56.3388 24.0006H11.6835C4.34 33.79 0 45.8908 0 58.9876C0 72.0879 4.34118 84.1887 11.6859 93.9781H56.3353C58.3576 93.9781 60 92.3712 60 90.3825V27.5996Z" fill="#C0E7F2"/>
<path fill-rule="evenodd" clip-rule="evenodd" d="M1.01758 48.1119H59.9999V33.2878H5.9764C3.6917 37.9222 2.00581 42.8967 1.01758 48.1119Z" fill="#00AFD3"/>
<path fill-rule="evenodd" clip-rule="evenodd" d="M73.3844 24.0121C60.7161 23.6083 50.1232 33.3757 49.7114 45.8282C49.5526 50.6639 50.9526 55.193 53.4655 58.9482L50.0173 68.8093L60.8514 65.9171C64.0902 67.8271 67.8538 68.977 71.8985 69.1054C84.5655 69.5092 95.1596 59.7418 95.5702 47.2893C95.9808 34.8368 86.0526 24.4158 73.3844 24.0121Z" fill="white"/>
<path d="M74.75 36C74.75 35.0335 73.9665 34.25 73 34.25C72.0335 34.25 71.25 35.0335 71.25 36H74.75ZM71.25 50.5C71.25 51.4665 72.0335 52.25 73 52.25C73.9665 52.25 74.75 51.4665 74.75 50.5H71.25ZM71.25 36V50.5H74.75V36H71.25Z" fill="#F8C612"/>
<rect x="71" y="55" width="4" height="4" rx="2" fill="#F8C612"/>
</svg>
