<svg xmlns="http://www.w3.org/2000/svg" width="102" height="102" viewBox="0 0 102 102">
    <g fill="none" fill-rule="evenodd">
        <path fill="#266082" d="M102 51c0 28.167-22.833 51-51 51S0 79.167 0 51 22.833 0 51 0s51 22.833 51 51"/>
        <path fill="#A1D9EE" d="M36.132 41.15h.002z"/>
        <path fill="#FFF" d="M68.035 29.801a26.63 26.63 0 0 1 .006 2.003c4.558.02 9.83 3.754 9.83 8.57 0 5.15-5.48 8.193-16.753 9.306-7.743.765-15.955-.214-25.237 1.04-9.372 1.267-13.568 6.84-13.568 11.802 0 4.761 5.764 9.434 11.644 9.438a27.627 27.627 0 0 1-.014-1c0-.335.013-.668.025-.999-5.198-.005-9.655-4.093-9.655-7.439 0-3.054 2.493-8.557 11.835-9.82 5.078-.686 9.848-.686 14.462-.686 3.708 0 7.21 0 10.704-.345 4.59-.453 18.558-1.832 18.558-11.298 0-6.036-6.243-10.55-11.837-10.572"/>
        <path fill="#00AFD3" d="M66.001 60.972a.6.6 0 0 0-.576.44 32.25 32.25 0 0 0-1.473 9.695c0 3.438.53 6.707 1.473 9.698a.602.602 0 0 0 .576.438H37.209c-.775.002-1.46-.553-1.76-1.39a25.959 25.959 0 0 1-1.506-8.746c0-3.103.543-6.052 1.506-8.745.3-.837.985-1.392 1.76-1.39l.405.001h28.387z"/>
        <path fill="#033D5B" d="M65.425 80.805a32.292 32.292 0 0 1-1.473-9.697c0-3.437.53-6.706 1.473-9.697a.603.603 0 0 1 .576-.44h.002c.244 0 .489.147.58.44a32.26 32.26 0 0 1 1.474 9.697c0 3.437-.53 6.706-1.473 9.697a.6.6 0 0 1-.581.438H66a.602.602 0 0 1-.576-.438"/>
        <path fill="#79D0EA" d="M34.134 67.94c.124-1.023.307-2.025.544-3h29.857c-.188.98-.333 1.98-.431 3h-29.97z"/>
        <path fill="#033D5B" d="M47.99 81.243A28.24 28.24 0 0 1 46.135 71.1c0-3.514.622-6.917 1.85-10.127h2.16l-.038.091c-1.308 3.162-1.972 6.54-1.972 10.036 0 3.497.664 6.873 1.972 10.036l.045.108H47.99zM52.735 81.243A28.24 28.24 0 0 1 50.88 71.1c0-3.514.622-6.917 1.85-10.127h2.16l-.038.091c-1.308 3.162-1.972 6.54-1.972 10.036 0 3.497.664 6.873 1.972 10.036l.045.108h-2.162zM57.57 81.243A28.24 28.24 0 0 1 55.715 71.1c0-3.514.622-6.917 1.848-10.127h2.162l-.038.091c-1.308 3.162-1.972 6.54-1.972 10.036 0 3.497.664 6.873 1.972 10.036l.045.108H57.57zM43.053 81.243A28.24 28.24 0 0 1 41.198 71.1c0-3.514.622-6.917 1.849-10.127h2.16l-.037.091c-1.308 3.162-1.972 6.54-1.972 10.036 0 3.497.664 6.873 1.972 10.036l.045.108h-2.162z"/>
        <path fill="#79D0EA" d="M35.999 20.753a.6.6 0 0 1 .576.44 32.251 32.251 0 0 1 1.473 9.696c0 3.437-.53 6.706-1.473 9.697a.602.602 0 0 1-.576.438h28.792c.775.002 1.46-.553 1.759-1.39a25.933 25.933 0 0 0 1.507-8.745 25.93 25.93 0 0 0-1.507-8.746c-.299-.837-.984-1.392-1.759-1.39l-.405.001H35.999z"/>
        <path fill="#033D5B" d="M36.575 40.586a32.292 32.292 0 0 0 1.473-9.697c0-3.437-.53-6.706-1.473-9.697a.603.603 0 0 0-.576-.44h-.002a.603.603 0 0 0-.58.44 32.26 32.26 0 0 0-1.474 9.697c0 3.437.53 6.706 1.473 9.697a.6.6 0 0 0 .581.438H36a.602.602 0 0 0 .576-.438"/>
        <path fill="#C0E7F2" d="M67.866 27.722a25.858 25.858 0 0 0-.544-3H37.465c.188.98.333 1.98.431 3h29.97z"/>
        <path fill="#00AFD3" d="M54.01 41.024a28.24 28.24 0 0 0 1.855-10.144c0-3.513-.622-6.917-1.85-10.127h-2.16l.038.091a26.123 26.123 0 0 1 1.972 10.036c0 3.497-.664 6.873-1.972 10.036l-.045.108h2.162zM49.264 41.024A28.241 28.241 0 0 0 51.12 30.88a28.26 28.26 0 0 0-1.849-10.127H47.11l.038.091c1.31 3.163 1.973 6.54 1.973 10.036 0 3.497-.664 6.873-1.973 10.036l-.045.108h2.162zM44.43 41.024a28.24 28.24 0 0 0 1.855-10.144 28.26 28.26 0 0 0-1.848-10.127h-2.162l.038.091a26.123 26.123 0 0 1 1.972 10.036c0 3.497-.664 6.873-1.972 10.036l-.045.108h2.162zM58.947 41.024a28.24 28.24 0 0 0 1.855-10.144c0-3.513-.622-6.917-1.849-10.127h-2.16l.037.091a26.123 26.123 0 0 1 1.972 10.036c0 3.497-.664 6.873-1.972 10.036l-.045.108h2.162z"/>
        <g fill="#F8C612">
            <path d="M30.946 33.925c-.245 0-.49-.09-.685-.271a4.018 4.018 0 0 1-1.264-2.92c0-1.104.463-2.17 1.27-2.924a1.001 1.001 0 0 1 1.366 1.463 1.973 1.973 0 0 0-.636 1.462c0 .558.224 1.078.634 1.46a1.001 1.001 0 0 1-.685 1.73M27.742 37.133c-.25 0-.5-.093-.694-.28a8.431 8.431 0 0 1-2.599-6.118c0-2.33.923-4.5 2.6-6.118a1 1 0 0 1 1.387 1.44 6.446 6.446 0 0 0-1.987 4.678c0 1.78.706 3.442 1.987 4.678a1 1 0 0 1-.694 1.72"/>
            <path d="M24.466 40.375a.997.997 0 0 1-.707-.293 12.913 12.913 0 0 1-3.81-9.194c0-3.473 1.352-6.737 3.807-9.192a1 1 0 0 1 1.414 1.414 10.927 10.927 0 0 0-3.221 7.778c0 2.939 1.145 5.702 3.224 7.78a.999.999 0 0 1-.707 1.707M70.974 74.455a.999.999 0 0 1-.683-1.73c.41-.384.636-.904.636-1.463s-.224-1.078-.634-1.46a1 1 0 0 1 1.367-1.46 4.015 4.015 0 0 1 1.267 2.92 4.018 4.018 0 0 1-1.27 2.924.998.998 0 0 1-.683.27M74.182 77.66a.999.999 0 0 1-.695-1.719 6.45 6.45 0 0 0 1.987-4.679c0-1.78-.706-3.442-1.987-4.679a1 1 0 0 1 1.39-1.439 8.432 8.432 0 0 1 2.597 6.118c0 2.328-.922 4.5-2.598 6.117a.997.997 0 0 1-.694.28"/>
            <path d="M77.461 80.594a1.001 1.001 0 0 1-.708-1.708 10.924 10.924 0 0 0 3.221-7.777c0-2.939-1.145-5.702-3.224-7.78a.999.999 0 1 1 1.414-1.415 12.917 12.917 0 0 1 3.81 9.195c0 3.472-1.35 6.736-3.806 9.192a1 1 0 0 1-.707.293"/>
        </g>
    </g>
</svg>
