<svg xmlns="http://www.w3.org/2000/svg" width="102" height="102" viewBox="0 0 102 102">
    <g fill="none" fill-rule="evenodd">
        <path fill="#255F82" d="M102 51c0 28.167-22.833 51-51 51S0 79.167 0 51 22.833 0 51 0s51 22.833 51 51"/>
        <path fill="#C1E7F2" d="M51 23.868a3.111 3.111 0 0 0-3.112-3.111H9.931A50.77 50.77 0 0 0 0 51a50.77 50.77 0 0 0 9.933 30.246h37.952A3.11 3.11 0 0 0 51 78.138v-54.27z"/>
        <path fill="#00AFD3" d="M.865 41.599H51V28.785H5.08A50.614 50.614 0 0 0 .865 41.599"/>
        <path fill="#FFF" d="M62.377 20.767c-10.769-.35-19.773 8.094-20.123 18.858a19.42 19.42 0 0 0 3.192 11.34l-2.931 8.525 9.209-2.501a19.407 19.407 0 0 0 9.39 2.757c10.767.349 19.771-8.094 20.12-18.858.35-10.764-8.09-19.772-18.857-20.121"/>
        <path fill="#F8C612" d="M61.966 37.631l.767-8.767c.045-.517-.644-.734-.904-.285l-5.53 9.58L54.31 41.6a.486.486 0 0 0 .421.728h6.293c.285 0 .51.244.484.528l-.769 8.791c-.045.518.644.735.904.285l5.545-9.604 1.986-3.44a.485.485 0 0 0-.42-.729H62.45a.486.486 0 0 1-.484-.528"/>
    </g>
</svg>
