<svg xmlns="http://www.w3.org/2000/svg" width="102" height="102" viewBox="0 0 102 102">
    <g fill="none" fill-rule="evenodd">
        <path fill="#255F82" d="M102 51c0 28.167-22.833 51-51 51S0 79.167 0 51 22.833 0 51 0s51 22.833 51 51"/>
        <path fill="#C1E7F2" d="M51 23.868a3.111 3.111 0 0 0-3.112-3.111H9.931A50.77 50.77 0 0 0 0 51a50.77 50.77 0 0 0 9.933 30.246h37.952A3.11 3.11 0 0 0 51 78.138v-54.27z"/>
        <path fill="#00AFD3" d="M.865 41.599H51V28.785H5.08A50.614 50.614 0 0 0 .865 41.599"/>
        <path fill="#FFF" d="M62.377 20.767c-10.769-.35-19.773 8.094-20.123 18.858a19.42 19.42 0 0 0 3.192 11.34l-2.931 8.525 9.209-2.501a19.407 19.407 0 0 0 9.39 2.757c10.767.349 19.771-8.094 20.12-18.858.35-10.764-8.09-19.772-18.857-20.121"/>
        <g transform="translate(54 36)">
            <rect width="16" height="13" y="5" fill="#033D5B" rx="3"/>
            <path fill="#033D5B" stroke="#033D5B" d="M8 9C5.794 9 4 7.206 4 5s1.794-4 4-4 4 1.794 4 4-1.794 4-4 4m0-9a5 5 0 1 0 0 10A5 5 0 1 0 8 0"/>
            <circle cx="8" cy="10" r="2" fill="#FFF"/>
            <rect width="2" height="5" x="7" y="11" fill="#FFF" rx="1"/>
        </g>
        <g fill="#F8C612">
            <path d="M55.756 34.934a.998.998 0 0 1-.866-.499l-3.01-5.19a1.001 1.001 0 0 1 1.73-1.003l3.01 5.19a1 1 0 0 1-.864 1.502M61.992 32.733a1 1 0 0 1-1-1v-6a1 1 0 1 1 2 0v6a1 1 0 0 1-1 1M68.236 34.923a.998.998 0 0 1-.865-1.5l3-5.196a.997.997 0 0 1 1.365-.366.998.998 0 0 1 .366 1.366l-2.999 5.196a1 1 0 0 1-.867.5"/>
        </g>
    </g>
</svg>
