<svg xmlns="http://www.w3.org/2000/svg" xmlns:xlink="http://www.w3.org/1999/xlink" width="102" height="102" viewBox="0 0 102 102">
    <defs>
        <path id="a" d="M0 .965h102v102H0z"/>
    </defs>
    <g fill="none" fill-rule="evenodd">
        <g transform="translate(0 -.965)">
            <mask id="b" fill="#fff">
                <use xlink:href="#a"/>
            </mask>
            <path fill="#266082" d="M102 51.965c0 28.166-22.834 51-51 51-28.167 0-51-22.834-51-51s22.833-51 51-51c28.166 0 51 22.834 51 51" mask="url(#b)"/>
        </g>
        <path fill="#79D0EA" d="M71.296 78.245L66.31 63.28l-2.998-9-2.947-8.845-5.673-17.03a1.499 1.499 0 0 0-1.422-1.025h-4.54a1.5 1.5 0 0 0-1.423 1.026L31.825 74.883l-1.12 3.362h40.59zM79.727 78.245H22.273c-.838 0-1.517.67-1.517 1.5 0 .828.679 1.5 1.517 1.5h57.454c.838 0 1.517-.672 1.517-1.5 0-.83-.679-1.5-1.517-1.5"/>
        <path fill="#FFF" d="M44.632 36.406l-2.998 9h18.732l-2.998-9zM35.69 63.25h30.62l-2.998-9H38.687z"/>
        <path fill="#00AFD3" d="M51 102c16.844 0 31.78-8.166 41.067-20.755H9.933C19.22 93.834 34.156 102 51 102"/>
        <g fill="#F8C612">
            <path d="M36.723 27.013a.997.997 0 0 1-.5-.134l-5.195-2.999a1 1 0 1 1 1-1.732l5.196 3a1 1 0 0 1-.501 1.865M42.756 20.97a.998.998 0 0 1-.866-.5l-3.01-5.19a1.001 1.001 0 0 1 1.73-1.003l3.01 5.19a1 1 0 0 1-.864 1.502M50.992 18.768a1 1 0 0 1-1-1v-6a1 1 0 1 1 2 0v6a1 1 0 0 1-1 1M59.236 20.958a.998.998 0 0 1-.865-1.5l3-5.196a.997.997 0 0 1 1.365-.366.998.998 0 0 1 .366 1.366l-2.999 5.196a1 1 0 0 1-.867.5M65.283 26.989a.999.999 0 0 1-.503-1.865l5.191-3.01a.999.999 0 1 1 1.003 1.73l-5.19 3.01a.997.997 0 0 1-.5.135"/>
        </g>
    </g>
</svg>
