<svg xmlns="http://www.w3.org/2000/svg" xmlns:xlink="http://www.w3.org/1999/xlink" width="120" height="120" viewBox="0 0 120 120">
    <defs>
        <path id="a" d="M0 1.135h120v120H0z"/>
        <path id="c" d="M.212 1.168a52.744 52.744 0 0 0 1.928 0H.212z"/>
    </defs>
    <g fill="none" fill-rule="evenodd">
        <g transform="translate(0 -1.135)">
            <mask id="b" fill="#fff">
                <use xlink:href="#a"/>
            </mask>
            <path fill="#266082" d="M120 61.135c0 33.136-26.864 60-60 60-33.136 0-60-26.864-60-60 0-33.138 26.864-60 60-60 33.136 0 60 26.862 60 60" mask="url(#b)"/>
        </g>
        <path fill="#86D5ED" d="M71.28 59.835l-3.204-4.353a3.25 3.25 0 0 0-4.428-1.186l-.941.545-22.408-22.62c-1.256-1.265-3.532-1.547-5.058-.626l-6.596 3.983c-1.527.923-2.402 3.087-1.944 4.81l8.126 30.566-.973.56a3.252 3.252 0 0 0-1.185 4.431l2.172 4.949 36.439-21.06z"/>
        <path fill="#E0F3F9" d="M95.595 95.588c0-.026.007-.05.007-.077a5.294 5.294 0 1 0-10.588 0c0 .026.008.051.008.077h10.573z"/>
        <g transform="translate(58.824 118.865)">
            <mask id="d" fill="#fff">
                <use xlink:href="#c"/>
            </mask>
            <path d="M.212 1.168a52.744 52.744 0 0 0 1.928 0H.212z" mask="url(#d)"/>
        </g>
        <path fill="#00AFD3" d="M108.318 95.588C97.388 110.388 79.812 120 60 120c-19.811 0-37.39-9.612-48.318-24.412h96.636zM33.764 83.413l-.027-.046a1.591 1.591 0 0 1 .58-2.172l37.486-21.663a1.593 1.593 0 0 1 2.171.581l.026.046a1.6 1.6 0 0 1-.574 2.18L35.94 84.004a1.6 1.6 0 0 1-2.176-.59M46.098 56.277l-1.986-3.436 5.482-3.167 2.894 2.91-6.39 3.693zm-8.21 4.744l-1.113-3.94 5.557-3.21 1.985 3.436-6.428 3.714zm-2.806-9.92l4.235-2.447 1.986 3.435-5.106 2.952-1.115-3.94zm10.116-5.846l2.894 2.91-5.009 2.896-1.985-3.436 4.1-2.37zm12.517 9.672l-1.886-1.898.486-.281a1.027 1.027 0 0 0-1.03-1.78l-.956.553-2.895-2.912.93-.538a1.028 1.028 0 1 0-1.03-1.779l-1.4.81-2.894-2.91.904-.524a1.029 1.029 0 1 0-1.03-1.78l-1.374.795-1.778-1.788a1.03 1.03 0 0 0-1.454-.005 1.03 1.03 0 0 0-.004 1.454l1.396 1.403-3.63 2.097-1.248-2.157a1.028 1.028 0 0 0-1.78 1.028l1.247 2.159-3.785 2.188-.542-1.918a1.028 1.028 0 1 0-1.979.56l.685 2.42-1.225.706a1.027 1.027 0 1 0 1.03 1.78l.772-.447 1.115 3.939-1.305.754a1.03 1.03 0 0 0 .516 1.918c.174 0 .35-.045.513-.138l.854-.494 1.116 3.941-.92.53a1.03 1.03 0 0 0 .516 1.92c.175 0 .352-.045.514-.14l.467-.269.736 2.598a1.03 1.03 0 0 0 1.978-.561l-.877-3.098 6.879-3.976 1.247 2.158a1.03 1.03 0 0 0 1.404.376c.49-.285.66-.913.377-1.405l-1.248-2.158 6.86-3.966 2.271 2.284a1.025 1.025 0 0 0 1.453.004c.403-.4.405-1.051.004-1.453z"/>
        <path fill="#FFF" d="M78.472 88.184c-.605-.162-3.419.034-3.781-.034-.372-.088-.74-.248-1.115-.719-.15-.188-.444-.687-.278-1.456.407-1.517.626-3.11.626-4.758 0-6.091-2.993-11.47-7.577-14.787L37.581 83.055c.1.998.271 1.975.525 2.92.165.77-.128 1.268-.279 1.456-.375.471-.743.631-1.114.72a4.146 4.146 0 0 0-3.336 4.052c0 1.398.708 2.637 1.78 3.385h44.868a4.127 4.127 0 0 0 1.774-3.381c0-2-1.433-3.65-3.327-4.023"/>
        <path fill="#E0F3F9" d="M66.348 66.43c4.583 3.318 7.575 8.696 7.575 14.787 0 1.647-.218 3.241-.626 4.758-.165.77.13 1.268.279 1.457.375.47.742.63 1.115.718.21.04 1.244-.008 2.194-.026a18.123 18.123 0 0 0 2.904-9.856c0-6.24-3.132-11.743-7.906-15.038l-5.535 3.2z"/>
        <g fill="#F8C612">
            <path d="M54.161 34.276a1.176 1.176 0 0 1-1.187-1.166l-.115-13.168a1.176 1.176 0 1 1 2.353-.02l.115 13.167a1.175 1.175 0 0 1-1.166 1.187M65.975 34.172a1.176 1.176 0 0 1-1.187-1.165l-.115-13.169a1.176 1.176 0 1 1 2.353-.02l.115 13.167a1.176 1.176 0 0 1-1.166 1.187M60.153 38.308a1.176 1.176 0 0 1-1.187-1.166l-.116-13.168a1.176 1.176 0 1 1 2.353-.02l.116 13.167a1.176 1.176 0 0 1-1.166 1.187"/>
        </g>
    </g>
</svg>
