<svg xmlns="http://www.w3.org/2000/svg" xmlns:xlink="http://www.w3.org/1999/xlink" width="102" height="102" viewBox="0 0 102 102">
    <defs>
        <path id="a" d="M0 102h102V0H0z"/>
    </defs>
    <g fill="none" fill-rule="evenodd">
        <path fill="#266082" d="M102 51c0 28.166-22.834 51-51 51-28.167 0-51-22.834-51-51C0 22.833 22.833 0 51 0c28.166 0 51 22.833 51 51"/>
        <path fill="#A1D9EE" d="M77.939 64.156H1.715A51.072 51.072 0 0 1 0 51.001a50.795 50.795 0 0 1 11.985-32.845h65.953v46z"/>
        <path fill="#79D0EA" d="M81.251 14.157H15.736C6.039 23.44 0 36.515 0 51a50.91 50.91 0 0 0 2.958 17.157h78.293v-54z"/>
        <path fill="#033D5B" d="M.002 51.002c0 4.548.596 8.957 1.713 13.154h76.224v-46H11.985A50.797 50.797 0 0 0 .002 51.002"/>
        <path fill="#C0E7F2" d="M52.935 78.278c-4.143 0-7.395-3.432-7.395-7.677v-2.445h-15v2.445c0 4.245-3.41 7.677-7.552 7.677"/>
        <mask id="b" fill="#fff">
            <use xlink:href="#a"/>
        </mask>
        <path fill="#79D0EA" d="M22.962 81.244h30.007v-2.966H22.962z" mask="url(#b)"/>
        <path fill="#FFF" d="M58.328 52.784L49.75 42.27a.498.498 0 0 0-.878.235L46.7 55.9a.499.499 0 0 0 .722.523l2.908-1.51a.498.498 0 0 1 .712.316l1.398 5.366a.5.5 0 0 0 .612.355l1.15-.309 1.15-.307a.499.499 0 0 0 .352-.614l-1.47-5.346a.498.498 0 0 1 .457-.63l3.274-.147a.498.498 0 0 0 .364-.812" mask="url(#b)"/>
        <path fill="#266082" d="M2.037 36.69c9.396-8.404 22.676-13.521 36.212-13.521 15.771 0 29.936 6.93 39.69 17.935V18.157H11.984A50.868 50.868 0 0 0 2.037 36.69" mask="url(#b)"/>
        <path fill="#00AFD3" d="M9.932 81.245C19.219 93.835 34.157 102 51 102c16.844 0 31.782-8.166 41.069-20.755H9.932z" mask="url(#b)"/>
        <g fill="#F8C612">
            <path d="M42.65 43.486a.995.995 0 0 1-.502-.136l-5.187-3.014a1 1 0 0 1 1.004-1.729l5.188 3.015a1 1 0 0 1-.503 1.864M48.118 39.313a1 1 0 0 1-.966-.744l-1.534-5.801a1.002 1.002 0 0 1 .712-1.223c.532-.14 1.08.177 1.222.711l1.534 5.801a1.002 1.002 0 0 1-.968 1.256M54.939 40.223a1 1 0 0 1-.864-1.503l3.014-5.187a1.001 1.001 0 0 1 1.73 1.005l-3.016 5.188a.998.998 0 0 1-.865.497"/>
        </g>
    </g>
</svg>
