<svg xmlns="http://www.w3.org/2000/svg" xmlns:xlink="http://www.w3.org/1999/xlink" width="100" height="100" viewBox="0 0 100 100">
    <defs>
        <path id="a" d="M27.068 0L0 27.867v.325L19.405 36h13.734L32.93 0h-5.862z"/>
        <path id="c" d="M50 0C22.386 0 0 22.386 0 50s22.386 50 50 50 50-22.386 50-50S77.614 0 50 0z"/>
    </defs>
    <g fill="none" fill-rule="evenodd">
        <path fill="#C1E7F5" d="M100 50c0 27.614-22.386 50-50 50S0 77.614 0 50 22.386 0 50 0s50 22.386 50 50"/>
        <path fill="#33B1DD" d="M70.272 78.333C65.325 90.63 51.345 96.588 39.048 91.64 26.75 86.693 20.794 72.713 25.74 60.417c4.948-12.297 18.927-18.255 31.224-13.308 12.297 4.948 18.254 18.927 13.307 31.224"/>
        <path fill="#33B1DD" d="M40.606 55.618a7 7 0 1 1-12.988-5.226 7 7 0 0 1 12.988 5.226M75.144 68.123A5.71 5.71 0 1 1 64.55 63.86a5.71 5.71 0 0 1 10.594 4.263"/>
        <path fill="#FFDC24" d="M72.17 57.539L38.774 44.102l29.716-30.595c1.247-1.284 3.424-.408 3.435 1.382l.247 42.65z"/>
        <g transform="translate(39 16)">
            <mask id="b" fill="#fff">
                <use xlink:href="#a"/>
            </mask>
            <path fill="#F0C501" d="M0 28h38v-4H0zM0 36h38v-4H0zM0 12h38V8H0zM0 20h38v-4H0zM0 4h38V0H0z" mask="url(#b)"/>
        </g>
        <g>
            <path fill="#F0C501" d="M71.141 61.436l-34.326-13.81a2.5 2.5 0 1 1 1.867-4.639l34.325 13.81a2.5 2.5 0 0 1-1.866 4.64z"/>
            <path fill="#98D7EE" d="M74 74a3 3 0 1 1-6 0 3 3 0 0 1 6 0"/>
            <mask id="d" fill="#fff">
                <use xlink:href="#c"/>
            </mask>
            <path fill="#004977" d="M0 100h100V75H0z" mask="url(#d)"/>
        </g>
        <g>
            <path fill="#66C4E6" d="M59.5 75h-39a2.5 2.5 0 1 1 0-5h39a2.5 2.5 0 1 1 0 5M39 86a3 3 0 0 0 3-3v-6.002C42 75.038 44 75 44 75H32s4 .065 4 4v4a3 3 0 0 0 3 3M50 82a3 3 0 0 1-3-3v-2.002C47 75.038 45 75 45 75h11s-3 .044-3 3.001V79a3 3 0 0 1-3 3M68 100a2 2 0 0 1-2-2V79c0-3.944-4-4-4-4h11s-3 .101-3 2.995V98a2 2 0 0 1-2 2"/>
            <path fill="#66C4E6" d="M24 70h3c3 0 3-6 11-6s7 5 13 5 7.333-2 12-2 13.238 5.587 10.826 8H25.111L24 70z"/>
            <path fill="#33B1DD" d="M61 90a2 2 0 0 1-2-2V73c0-5.35-4-4.359-4-4.359l6.345-5.629L66 67.551s-3-1.45-3 1.444V88a2 2 0 0 1-2 2"/>
        </g>
    </g>
</svg>
