<svg xmlns="http://www.w3.org/2000/svg" xmlns:xlink="http://www.w3.org/1999/xlink" width="102" height="102" viewBox="0 0 102 102">
    <defs>
        <path id="a" d="M0 0h102v102H0z"/>
        <path id="c" d="M0 102h102V0H0z"/>
    </defs>
    <g fill="none" fill-rule="evenodd">
        <mask id="b" fill="#fff">
            <use xlink:href="#a"/>
        </mask>
        <path fill="#266082" d="M102 51c0 28.165-22.834 51-51 51-28.167 0-51-22.835-51-51C0 22.833 22.833 0 51 0c28.166 0 51 22.834 51 51" mask="url(#b)"/>
        <g>
            <path fill="#FFF" d="M28.95 40.747c-4.522 0-8.191 4.967-8.191 9.253v42.07A50.764 50.764 0 0 0 51 102c11.32 0 21.78-3.689 30.241-9.93V50c.012-4.29-3.68-9.01-8.201-9.01l-44.09-.243z"/>
            <path fill="#033D5B" d="M45 46.124h12a1 1 0 0 1 0 2H45a1 1 0 1 1 0-2z"/>
            <path fill="#00AFD3" d="M25.07 55.818v39.108c.128.076.257.148.387.225C32.967 99.507 41.692 102 51 102c9.466 0 18.332-2.58 25.93-7.074V55.818H25.07z"/>
            <mask id="d" fill="#fff">
                <use xlink:href="#c"/>
            </mask>
            <text fill="#FFF" font-family="Optimist-Regular, Optimist" font-size="20" mask="url(#d)">
                <tspan x="30.02" y="82">••••••</tspan>
            </text>
        </g>
        <g fill="#F8C612">
            <path d="M40.604 32c-.484 0-.952-.249-1.21-.694l-4.205-7.217a1.39 1.39 0 0 1 .507-1.902 1.403 1.403 0 0 1 1.91.507l4.205 7.217c.387.666.16 1.516-.509 1.901-.219.127-.46.188-.698.188M50.5 30a1.5 1.5 0 0 1-1.499-1.5l-.001-9a1.498 1.498 0 1 1 2.999 0l.001 9a1.5 1.5 0 0 1-1.5 1.5M59.4 32c-.239 0-.48-.06-.7-.186a1.382 1.382 0 0 1-.511-1.898l4.198-7.22a1.402 1.402 0 0 1 1.912-.508c.67.383.9 1.232.512 1.898l-4.198 7.22c-.259.444-.73.694-1.214.694"/>
        </g>
    </g>
</svg>
