<svg width="123" height="123" viewBox="0 0 123 123" fill="none" xmlns="http://www.w3.org/2000/svg">
<path d="M121.752 61.0699C121.752 75.034 117.076 87.9042 109.214 98.198C106.754 101.406 103.992 104.372 100.963 107.033L104.089 86.0569L104.562 82.8728H20.2557L20.7282 85.425L24.3504 109.926C19.9044 106.572 15.9308 102.622 12.5387 98.198C4.67625 87.9042 0 75.034 0 61.0699C0 27.3447 27.258 0 60.8761 0C91.7321 0 117.233 23.0425 121.207 52.903C121.328 53.8023 121.425 54.7138 121.51 55.6253C121.522 55.7347 121.534 55.8319 121.534 55.9413C121.667 57.509 121.74 59.089 121.74 60.6932C121.752 60.8147 121.752 60.9484 121.752 61.0699Z" fill="#365F7E"/>
<path d="M62.5001 90.6873C62.4757 90.6995 62.4391 90.6873 62.4147 90.6873C62.4391 90.6873 62.4635 90.6873 62.5001 90.6873Z" fill="#98D3EA"/>
<path d="M104.562 82.8728L104.247 85.0239L104.089 86.0569L104.041 86.3972L100.963 107.033C98.2498 109.415 95.318 111.567 92.2046 113.438C90.6176 114.398 88.9821 115.285 87.2982 116.1C84.2332 117.582 81.0349 118.822 77.7155 119.77C76.1648 120.22 74.5899 120.596 72.9908 120.924C70.3498 121.459 67.6482 121.824 64.8861 122.006C64.0865 122.055 63.2869 122.091 62.4874 122.115C62.4268 122.115 62.3662 122.115 62.3056 122.115C61.8211 122.128 61.3486 122.128 60.864 122.128C60.549 122.128 60.2219 122.128 59.9069 122.115C57.169 122.079 54.4675 121.848 51.8144 121.459C50.2273 121.216 48.6524 120.924 47.1018 120.56C43.8187 119.806 40.6447 118.773 37.6039 117.509C35.9442 116.817 34.3208 116.051 32.7338 115.225C29.7899 113.681 26.9793 111.907 24.3383 109.914L20.8614 86.385L20.7161 85.4128L20.6434 85.036L20.2436 82.8606H104.562V82.8728Z" fill="#98D3EA"/>
<path d="M62.4031 90.6873C62.3787 90.6873 62.3421 90.6873 62.3177 90.6873V90.675C62.3421 90.6873 62.3787 90.6873 62.4031 90.6873Z" fill="#98D3EA"/>
<path d="M49.5974 34.904L53.0743 34.4543C53.0743 34.4543 53.462 35.4266 54.6129 35.8763C55.7638 36.3259 54.7219 39.4372 54.6977 39.7045C54.6734 39.9719 52.8684 42.6578 53.5347 42.6942C54.201 42.7307 55.6063 43.4842 54.9884 44.6509C54.3585 45.8176 53.0743 48.1996 53.1954 48.5642C53.3166 48.9288 53.5952 50.6424 52.7593 51.0313C51.9234 51.4202 49.9851 52.988 49.6701 53.3283C49.3551 53.6686 47.9377 54.6773 47.9377 54.6773C47.9377 54.6773 46.5808 56.2694 45.9509 55.1148C45.3209 53.9603 43.1524 51.5661 43.1524 51.5661L49.5974 34.904Z" fill="white"/>
<path d="M49.2097 41.0778C49.5853 41.4302 48.1679 42.682 49.6459 43.6056C51.1239 44.5293 52.2747 44.5536 52.1051 45.9877C51.9355 47.4217 51.5115 49.1232 50.9179 49.7552C50.3364 50.375 48.9311 51.882 48.9311 51.882C48.9311 51.882 48.1194 53.0001 47.647 53.2553C47.1745 53.5105 44.6668 54.4342 44.4123 53.9602C44.1579 53.4862 42.4861 54.0209 42.4982 54.7501C42.5225 55.4793 38.4277 55.8439 37.931 55.613C37.4464 55.3821 34.3208 52.2101 34.3208 52.2101L31.5345 49.6822L29.1964 46.4252L27.2459 41.7583C27.2459 41.7583 25.1743 37.213 25.8769 36.7148C26.5796 36.2043 27.4397 34.5272 28.3604 34.0532C29.2812 33.5792 31.1832 32.5462 32.1402 32.2788C33.0973 32.0115 36.2592 32.6313 37.2041 32.1208C38.1491 31.6104 39.9178 30.2128 41.1293 30.1763C42.3407 30.1399 44.0126 29.6051 45.5875 29.9211C47.1624 30.2371 49.549 32.9473 50.397 33.2876C51.2571 33.6278 53.1955 34.0532 53.7164 35.2442C54.2373 36.4352 54.1889 38.7443 53.7164 38.9996C53.2439 39.2548 51.8144 40.0326 51.8144 40.0326L49.2097 41.0778Z" fill="#F3FCFF"/>
<path d="M45.4784 33.5549L42.474 34.0168L41.2988 35.2685L39.5422 37.1401L38.5852 39.5343C36.9618 39.6437 35.9078 41.017 35.9078 41.017C35.9078 41.017 33.8241 40.2392 34.2966 39.4978C34.7569 38.7565 34.5995 37.6749 34.5995 37.6749C34.5995 37.6749 35.5565 37.4075 36.1622 37.2617C36.7559 37.1158 37.3737 37.4683 38.0763 36.4717C38.7669 35.4751 40.4629 35.6696 40.572 35.0619C40.6689 34.4543 41.4806 33.0931 41.9773 33.5671C42.474 34.0168 44.4971 33.1053 45.4784 33.5549Z" fill="#E3F2F8"/>
<path d="M49.1249 43.1074L49.2218 45.5745L46.9079 45.4773C46.496 46.7412 46.0236 47.7013 46.0236 47.7013L45.6117 49.4271C43.7945 49.1233 42.9222 49.7188 42.9222 49.7188C42.0984 49.1719 41.6865 49.3663 42.8738 48.0902C44.0731 46.8142 44.2064 47.1788 44.6546 46.1943C45.1029 45.2099 44.1943 45.4408 45.115 44.6995C46.0357 43.9703 45.8176 43.1074 46.5808 43.0953C47.3441 43.0831 47.6954 41.7706 48.4101 42.439C49.1249 43.1074 48.4344 40.8226 48.4344 40.8226C49.4157 39.6316 49.1734 38.9389 50.0698 39.0725C50.9663 39.2184 51.8386 40.0327 51.8386 40.0327L50.0456 41.6369L49.1249 43.1074Z" fill="#E3F2F8"/>
<path d="M52.2505 37.8329C52.2505 37.8329 50.7967 37.6384 51.0027 36.654C51.2086 35.6818 49.5247 35.7304 49.9729 34.5029C50.4212 33.2754 48.1557 32.7893 48.1557 32.7893C48.1557 32.7893 44.0125 33.1174 43.9883 32.1452C43.952 31.1729 42.3892 31.1 42.3892 31.1L40.5841 31.2823L39.0576 32.8987L37.2162 32.1087L34.0422 34.2598L32.6127 35.779L31.3043 37.1766C30.638 38.3798 29.899 37.6749 29.899 37.6749L28.6148 39.0482L28.5543 40.8712C28.5543 40.8712 29.1963 42.1838 30.1776 42.4025C31.1468 42.6091 33.0972 43.0345 33.0972 43.0345L33.7151 43.6178L32.6369 45.0276C32.6369 45.0276 31.8616 45.854 31.1104 45.1491C30.3593 44.4443 28.3362 44.3227 27.8031 43.0345C27.2701 41.7462 27.3428 42.0258 26.8946 40.8955C26.4463 39.7774 24.932 39.0847 25.9133 38.1246C26.8824 37.1645 26.0708 36.6176 26.3857 36.2287C26.7007 35.8398 27.5972 34.4543 28.3847 34.0411C29.1721 33.6279 29.9474 33.1296 31.0499 32.6921C32.1523 32.2546 32.3098 34.0411 33.2063 33.1418C34.1028 32.2424 34.8175 32.5219 36.0169 32.3153C37.2162 32.1087 41.1414 30.1642 41.1414 30.1642L44.6304 29.8118C44.6304 29.8118 47.7196 31.1243 47.7438 31.1365C47.7681 31.1486 49.0038 32.3275 49.7185 32.8015C50.4333 33.2754 53.2923 34.4786 53.5225 34.8554C53.7527 35.2321 54.1161 37.2739 54.1161 37.2739L53.7406 38.9875L52.2505 37.8329Z" fill="white"/>
<path d="M46.9685 38.7322C46.9685 38.7322 43.6612 41.017 43.5522 41.3816C43.4432 41.7462 44.3639 42.7671 43.7581 43.4112C43.1524 44.0553 40.7174 45.6231 40.4508 45.7932C40.1843 45.9634 40.1116 47.3002 40.1116 47.3002L41.0202 49.3298L41.3958 50.8611C41.3958 50.8611 39.1909 50.4236 38.779 50.0347C38.3671 49.6458 37.2041 47.1301 37.0587 46.5346C36.9134 45.9269 36.6226 45.4165 37.1557 44.5171C37.6887 43.6056 36.768 41.0899 38.1006 41.4181C39.4332 41.7462 40.7416 39.5343 41.5169 39.8624C42.2923 40.1906 42.8859 39.8138 43.4674 38.951C44.0489 38.0881 44.5335 38.0638 45.3452 37.2009C46.169 36.3259 47.4773 35.9248 47.4773 35.9248L48.3375 36.7391L46.9685 38.7322Z" fill="white"/>
<path d="M51.4631 44.5901L50.5181 47.9565C50.5181 47.9565 49.4884 47.4582 48.9432 48.467C48.3981 49.4757 46.7747 50.7761 46.7747 50.7761C46.7747 50.7761 43.9641 50.7032 44.0853 51.0678C44.2185 51.4324 42.5346 52.6598 42.5346 52.6598L40.0995 52.2466C40.0995 52.2466 38.561 51.9671 38.1127 51.3108C37.6645 50.6545 36.7438 50.0833 36.2834 49.6094C35.8109 49.1354 34.6722 48.1024 34.6722 48.1024L32.8307 49.1597C31.5466 49.6944 34.5026 52.5261 35.0235 52.9758C35.5444 53.4376 37.931 55.6252 37.931 55.6252C37.931 55.6252 40.3903 55.5645 40.7537 55.4915C41.1051 55.4308 41.3595 55.6495 41.9289 55.1999C42.4982 54.7502 41.626 54.1547 43.0192 54.0574C44.4124 53.9602 45.1392 54.0939 45.6238 53.9724C46.1084 53.8387 47.647 53.2553 47.647 53.2553C47.647 53.2553 50.4455 50.4844 50.6877 50.1198C50.93 49.7552 52.7351 47.9322 52.7351 47.9322C52.7351 47.9322 53.1712 47.1058 53.0016 46.0363C52.832 44.9668 51.4631 44.5901 51.4631 44.5901Z" fill="#E3F2F8"/>
<path d="M121.207 52.9029C121.328 53.8023 121.425 54.7138 121.51 55.6253C121.037 55.8926 120.577 56.1843 120.129 56.4881C119.535 56.9013 119.293 57.0958 118.796 57.4969C117.815 58.3233 116.906 59.2348 116.058 60.1949C115.162 61.2157 114.592 61.9449 113.841 63.0023C111.443 66.393 109.638 70.1119 107.748 73.7943C107.348 74.5721 106.33 74.56 105.749 74.0495C103.29 71.9106 100.867 69.723 98.4073 67.584C92.7255 62.6255 86.8984 57.8007 80.5867 53.6807C77.5822 51.7119 74.2628 49.7917 71.0767 48.4427C69.5866 47.8107 68.0359 47.2638 66.461 46.8749C65.7705 46.7048 65.0799 46.559 64.3773 46.4617C64.3773 46.4617 64.3773 46.4617 64.3652 46.4617H64.353H64.3409H64.353H64.3409C64.2804 46.4496 64.1471 46.4374 64.1471 46.4374C64.0623 46.4253 63.9896 46.4131 63.9048 46.4131C63.7473 46.401 63.5898 46.3767 63.4202 46.3645C63.0689 46.3402 62.7176 46.3281 62.3662 46.3159C60.7308 46.2916 60.7308 43.7394 62.3662 43.7637C66.0612 43.8123 69.6471 45.0155 72.9908 46.5225C80.1142 49.7188 86.5107 54.495 92.568 59.3685C97.2564 63.136 101.715 67.1708 106.245 71.1328C106.972 69.6865 107.687 68.2403 108.475 66.8305C110.994 62.2609 114.059 57.825 118.287 54.7016C119.208 54.0089 120.189 53.4012 121.207 52.9029Z" fill="#F1C845"/>
<path d="M122.939 54.9084H122.952C122.952 54.8958 122.952 54.9084 122.939 54.9084Z" fill="#F1C845"/>
<path d="M122.976 54.896C122.988 54.896 122.988 54.8838 123 54.8838C122.988 54.8838 122.988 54.8838 122.976 54.896C122.976 54.8838 122.976 54.896 122.976 54.896Z" fill="#F1C845"/>
<path d="M86.644 63.0752C82.5129 59.9153 78.188 56.9499 73.4875 54.6773C71.7914 53.8509 70.0348 53.1217 68.2297 52.5626C66.6548 52.0765 65.9885 54.5436 67.5513 55.0176C73.221 56.7555 78.3818 60.1341 83.1429 63.6099C83.894 64.1568 84.6209 64.7159 85.3598 65.2749C85.905 65.6881 86.7773 65.36 87.1044 64.8131C87.4799 64.1568 87.1892 63.4884 86.644 63.0752Z" fill="#F1C845"/>
<path d="M104.562 82.8728L104.234 85.0361L104.028 85.0482H20.6555L20.2557 82.8728H104.562Z" fill="#4DACCF"/>
<path d="M62.4873 76.8083H62.3177H16.3426V82.8728H62.3177H62.4873H108.475V76.8083H62.4873Z" fill="#98D3EA"/>
<path d="M51.8265 121.471C50.2394 121.228 48.6645 120.937 47.1139 120.572L46.3991 93.3489C46.3628 91.9269 47.3804 90.7359 48.6767 90.6995C48.7009 90.6995 48.7251 90.6995 48.7493 90.6995C50.0093 90.6995 51.0511 91.8054 51.0875 93.203L51.8265 121.471Z" fill="#4DACCF"/>
<path d="M37.616 117.522C35.9563 116.829 34.333 116.075 32.7459 115.237L31.1589 93.5677C31.0499 92.1458 32.0191 90.9061 33.3032 90.7846C33.3638 90.7725 33.4365 90.7725 33.497 90.7725C34.7085 90.7725 35.7261 91.7933 35.8352 93.1423L37.616 117.522Z" fill="#4DACCF"/>
<path d="M64.886 93.2637V122.006C64.0865 122.055 63.2869 122.091 62.4873 122.115C62.4268 122.115 62.3662 122.115 62.3056 122.115C61.821 122.128 61.3486 122.128 60.864 122.128C60.549 122.128 60.2219 122.128 59.9069 122.115V93.2637C59.9069 91.8418 60.9609 90.6873 62.2572 90.6873C62.2814 90.6873 62.2935 90.6873 62.3177 90.6873C62.342 90.6873 62.3783 90.6873 62.4025 90.6873C62.4268 90.6873 62.4631 90.6873 62.4873 90.6873C62.4995 90.6873 62.5237 90.6873 62.5358 90.6873C63.8442 90.6873 64.886 91.8418 64.886 93.2637Z" fill="#4DACCF"/>
<path d="M78.406 93.3488L77.7154 119.77C76.1648 120.22 74.5899 120.596 72.9908 120.924L73.7176 93.1908C73.754 91.7932 74.7958 90.6873 76.0557 90.6873C76.08 90.6873 76.1042 90.6873 76.1284 90.6873C77.4247 90.7359 78.4423 91.9269 78.406 93.3488Z" fill="#4DACCF"/>
<path d="M93.6583 93.5675L92.2046 113.438C90.6176 114.398 88.9821 115.285 87.2981 116.1L88.9821 93.1543C89.079 91.8053 90.1087 90.7844 91.3081 90.7844C91.3687 90.7844 91.4414 90.7844 91.5019 90.7966C92.7982 90.906 93.7674 92.1456 93.6583 93.5675Z" fill="#4DACCF"/>
</svg>
