<?xml version="1.0" encoding="UTF-8"?>
<svg width="317px" height="196px" viewBox="0 0 317 196" version="1.1" xmlns="http://www.w3.org/2000/svg" xmlns:xlink="http://www.w3.org/1999/xlink">
    <!-- Generator: Sketch 53 (72520) - https://sketchapp.com -->
    <title>mc_symbol</title>
    <desc>Created with Sketch.</desc>
    <g id="Symbols" stroke="none" stroke-width="1" fill="none" fill-rule="evenodd">
        <g id="mc_symbol" transform="translate(-1.000000, -1.000000)" fill-rule="nonzero">
            <rect id="Rectangle" fill="#FF5F00" x="112.209041" y="22.0783562" width="94.0093151" height="153.544932"></rect>
            <path d="M121.892055,98.8643836 C121.86845,68.9067163 135.620802,40.6018765 159.186575,22.1054795 C119.152034,-9.3573938 61.6608272,-4.77455423 27.1162299,32.6333017 C-7.42836743,70.0411576 -7.42836743,127.714733 27.1162299,165.122589 C61.6608272,202.530445 119.152034,207.113284 159.186575,175.650411 C135.613302,157.14814 121.860111,128.831569 121.892055,98.8643836 Z" id="Path" fill="#EB001B"></path>
            <path d="M307.849315,159.376438 L307.849315,156.230137 L309.205479,156.230137 L309.205479,155.579178 L305.977808,155.579178 L305.977808,156.230137 L307.252603,156.230137 L307.252603,159.376438 L307.849315,159.376438 Z M314.114795,159.376438 L314.114795,155.579178 L313.138356,155.579178 L311.999178,158.291507 L310.86,155.579178 L309.883562,155.579178 L309.883562,159.376438 L310.588767,159.376438 L310.588767,156.50137 L311.646575,158.969589 L312.378904,158.969589 L313.436712,156.50137 L313.436712,159.376438 L314.114795,159.376438 Z" id="Shape" fill="#F79E1B"></path>
            <path d="M317.179726,98.8643836 C317.178855,136.249443 295.832128,170.352284 262.205583,186.689301 C228.579038,203.026318 188.576257,198.729331 159.186575,175.623288 C182.742066,157.111188 196.495453,128.810111 196.495453,98.8508219 C196.495453,68.8915328 182.742066,40.5904562 159.186575,22.0783562 C188.576257,-1.02768733 228.579038,-5.32467411 262.205583,11.0123426 C295.832128,27.3493593 317.178855,61.4522012 317.179726,98.8372603 L317.179726,98.8643836 Z" id="Path" fill="#F79E1B"></path>
        </g>
    </g>
</svg>