<?xml version="1.0" encoding="UTF-8"?>
<svg width="40px" height="13px" viewBox="0 0 40 13" version="1.1" xmlns="http://www.w3.org/2000/svg" xmlns:xlink="http://www.w3.org/1999/xlink">
    <!-- Generator: Sketch 46.2 (44496) - http://www.bohemiancoding.com/sketch -->
    <title>VISA logo</title>
    <desc>Created with Sketch.</desc>
    <defs></defs>
    <g id="Finals-for-EASE-S3" stroke="none" stroke-width="1" fill="none" fill-rule="evenodd">
        <g id="07-TAP-Dashboard-Plastic-Card-Locked-Copy" transform="translate(-656.000000, -491.000000)" fill="#FFFFFF">
            <g id="aerie" transform="translate(439.000000, 331.000000)">
                <path d="M236.62963,160.222222 L233.962963,172.592593 L230.777778,172.592593 L233.444444,160.222222 L236.62963,160.222222 Z M250.111111,168.222222 L251.814815,163.555556 L252.777778,168.222222 L250.111111,168.222222 Z M253.666667,172.592593 L256.62963,172.592593 L254.037037,160.222222 L251.296296,160.222222 C250.703704,160.222222 250.185185,160.592593 249.962963,161.111111 L245.148148,172.592593 L248.481481,172.592593 L249.148148,170.740741 L253.296296,170.740741 L253.666667,172.592593 Z M245.296296,168.592593 C245.296296,165.333333 240.777778,165.111111 240.777778,163.703704 C240.777778,163.259259 241.222222,162.814815 242.111111,162.666667 C242.555556,162.592593 243.814815,162.592593 245.296296,163.185185 L245.888889,160.518519 C245.148148,160.296296 244.111111,160 242.925926,160 C239.740741,160 237.518519,161.703704 237.518519,164.074074 C237.518519,165.851852 239.074074,166.814815 240.333333,167.407407 C241.592593,168 241.962963,168.37037 241.962963,168.962963 C241.962963,169.777778 241,170.148148 240.037037,170.148148 C238.407407,170.148148 237.518519,169.703704 236.777778,169.333333 L236.185185,172.074074 C236.925926,172.444444 238.333333,172.740741 239.740741,172.740741 C243.074074,172.814815 245.296296,171.111111 245.296296,168.592593 L245.296296,168.592593 Z M232.037037,160.222222 L226.851852,172.592593 L223.444444,172.592593 L220.925926,162.740741 C220.777778,162.148148 220.62963,161.925926 220.185185,161.62963 C219.37037,161.185185 218.111111,160.814815 217,160.592593 L217.074074,160.222222 L222.555556,160.222222 C223.222222,160.222222 223.888889,160.666667 224.037037,161.481481 L225.37037,168.666667 L228.703704,160.222222 L232.037037,160.222222 Z" id="VISA-logo"></path>
            </g>
        </g>
    </g>
</svg>